STARTFONT 2.1
COMMENT
COMMENT Converted from OpenType font "ibmplex_regular.ttf" by "otf2bdf 3.0".
COMMENT
FONT -FreeType-IBM Plex Sans Thin-Medium-R-Normal--17-120-100-100-P-73-ISO10646-1
SIZE 12 100 100
FONTBOUNDINGBOX 21 21 -2 -4
STARTPROPERTIES 19
FOUNDRY "FreeType"
FAMILY_NAME "IBM Plex Sans Thin"
WEIGHT_NAME "Medium"
SLANT "R"
SETWIDTH_NAME "Normal"
ADD_STYLE_NAME ""
PIXEL_SIZE 17
POINT_SIZE 120
RESOLUTION_X 100
RESOLUTION_Y 100
SPACING "P"
AVERAGE_WIDTH 73
CHARSET_REGISTRY "ISO10646"
CHARSET_ENCODING "1"
FONT_ASCENT 17
FONT_DESCENT 4
COPYRIGHT "Copyright 2018 IBM Corp. All rights reserved."
_OTF_FONTFILE "ibmplex_regular.ttf"
_OTF_PSNAME "IBMPlexSans-Thin"
ENDPROPERTIES
CHARS 826
STARTCHAR 0000
ENCODING 0
SWIDTH 0 0
DWIDTH 0 0
BBX 0 0 0 0
BITMAP
ENDCHAR
STARTCHAR 000D
ENCODING 13
SWIDTH 180 0
DWIDTH 3 0
BBX 0 0 0 0
BITMAP
ENDCHAR
STARTCHAR 0020
ENCODING 32
SWIDTH 180 0
DWIDTH 3 0
BBX 0 0 0 0
BITMAP
ENDCHAR
STARTCHAR 0021
ENCODING 33
SWIDTH 240 0
DWIDTH 4 0
BBX 1 11 2 1
BITMAP
80
80
80
80
80
80
80
00
00
00
80
ENDCHAR
STARTCHAR 0022
ENCODING 34
SWIDTH 360 0
DWIDTH 6 0
BBX 3 4 2 8
BITMAP
20
A0
A0
20
ENDCHAR
STARTCHAR 0023
ENCODING 35
SWIDTH 660 0
DWIDTH 11 0
BBX 8 11 2 0
BITMAP
02
22
24
24
7F
24
44
44
FA
48
48
ENDCHAR
STARTCHAR 0024
ENCODING 36
SWIDTH 540 0
DWIDTH 9 0
BBX 7 14 1 -1
BITMAP
10
38
D6
90
90
90
50
3C
12
12
12
92
54
38
ENDCHAR
STARTCHAR 0025
ENCODING 37
SWIDTH 840 0
DWIDTH 14 0
BBX 12 12 1 0
BITMAP
7000
8840
8880
8900
8900
8A00
74F0
0510
0910
1110
1110
20F0
ENDCHAR
STARTCHAR 0026
ENCODING 38
SWIDTH 660 0
DWIDTH 11 0
BBX 9 12 1 0
BITMAP
1C00
6200
4200
4200
4400
3800
5080
8900
8500
8300
8300
7C80
ENDCHAR
STARTCHAR 0027
ENCODING 39
SWIDTH 180 0
DWIDTH 3 0
BBX 1 2 1 9
BITMAP
80
80
ENDCHAR
STARTCHAR 0028
ENCODING 40
SWIDTH 300 0
DWIDTH 5 0
BBX 2 13 2 -1
BITMAP
40
80
80
80
80
80
80
80
80
80
80
80
40
ENDCHAR
STARTCHAR 0029
ENCODING 41
SWIDTH 300 0
DWIDTH 5 0
BBX 4 14 0 -2
BITMAP
80
40
40
20
20
10
10
10
10
10
20
20
20
40
ENDCHAR
STARTCHAR 002A
ENCODING 42
SWIDTH 360 0
DWIDTH 6 0
BBX 6 4 0 8
BITMAP
A4
78
50
48
ENDCHAR
STARTCHAR 002B
ENCODING 43
SWIDTH 600 0
DWIDTH 10 0
BBX 6 6 2 2
BITMAP
20
20
20
FC
20
20
ENDCHAR
STARTCHAR 002C
ENCODING 44
SWIDTH 240 0
DWIDTH 4 0
BBX 1 1 1 -1
BITMAP
80
ENDCHAR
STARTCHAR 002D
ENCODING 45
SWIDTH 360 0
DWIDTH 6 0
BBX 2 1 2 5
BITMAP
C0
ENDCHAR
STARTCHAR 002E
ENCODING 46
SWIDTH 240 0
DWIDTH 4 0
BBX 0 0 2 0
BITMAP
ENDCHAR
STARTCHAR 002F
ENCODING 47
SWIDTH 300 0
DWIDTH 5 0
BBX 4 14 0 -2
BITMAP
10
10
20
20
20
20
40
40
40
40
80
80
80
80
ENDCHAR
STARTCHAR 0030
ENCODING 48
SWIDTH 600 0
DWIDTH 10 0
BBX 8 12 1 0
BITMAP
3C
42
82
81
81
81
81
81
81
82
82
7C
ENDCHAR
STARTCHAR 0031
ENCODING 49
SWIDTH 600 0
DWIDTH 10 0
BBX 7 12 1 0
BITMAP
08
38
48
88
08
08
08
08
08
08
08
3E
ENDCHAR
STARTCHAR 0032
ENCODING 50
SWIDTH 600 0
DWIDTH 10 0
BBX 7 12 1 0
BITMAP
3C
C2
02
02
02
02
04
08
10
20
40
7E
ENDCHAR
STARTCHAR 0033
ENCODING 51
SWIDTH 600 0
DWIDTH 10 0
BBX 7 12 1 0
BITMAP
38
06
02
02
02
04
1C
02
02
02
82
7C
ENDCHAR
STARTCHAR 0034
ENCODING 52
SWIDTH 600 0
DWIDTH 10 0
BBX 7 10 1 1
BITMAP
0C
0C
14
24
24
44
84
84
7E
04
ENDCHAR
STARTCHAR 0035
ENCODING 53
SWIDTH 600 0
DWIDTH 10 0
BBX 7 12 1 0
BITMAP
7E
40
40
80
80
BC
42
02
02
02
82
7C
ENDCHAR
STARTCHAR 0036
ENCODING 54
SWIDTH 600 0
DWIDTH 10 0
BBX 8 11 1 1
BITMAP
18
20
40
40
BC
C2
82
81
82
82
7C
ENDCHAR
STARTCHAR 0037
ENCODING 55
SWIDTH 600 0
DWIDTH 10 0
BBX 8 12 1 0
BITMAP
FF
82
82
04
04
08
08
08
10
10
20
20
ENDCHAR
STARTCHAR 0038
ENCODING 56
SWIDTH 600 0
DWIDTH 10 0
BBX 8 12 1 0
BITMAP
3C
C2
82
82
82
64
5A
82
81
81
82
7E
ENDCHAR
STARTCHAR 0039
ENCODING 57
SWIDTH 600 0
DWIDTH 10 0
BBX 7 12 2 0
BITMAP
78
84
84
82
82
82
8C
74
04
08
10
20
ENDCHAR
STARTCHAR 003A
ENCODING 58
SWIDTH 240 0
DWIDTH 4 0
BBX 1 1 2 8
BITMAP
80
ENDCHAR
STARTCHAR 003B
ENCODING 59
SWIDTH 240 0
DWIDTH 4 0
BBX 1 2 2 6
BITMAP
80
80
ENDCHAR
STARTCHAR 003C
ENCODING 60
SWIDTH 600 0
DWIDTH 10 0
BBX 7 8 1 2
BITMAP
06
08
30
C0
40
20
18
06
ENDCHAR
STARTCHAR 003D
ENCODING 61
SWIDTH 600 0
DWIDTH 10 0
BBX 8 4 1 3
BITMAP
FF
00
00
FF
ENDCHAR
STARTCHAR 003E
ENCODING 62
SWIDTH 600 0
DWIDTH 10 0
BBX 6 8 2 2
BITMAP
80
60
10
0C
04
18
20
C0
ENDCHAR
STARTCHAR 003F
ENCODING 63
SWIDTH 420 0
DWIDTH 7 0
BBX 6 12 1 0
BITMAP
78
84
04
04
04
08
30
20
20
00
00
20
ENDCHAR
STARTCHAR 0040
ENCODING 64
SWIDTH 840 0
DWIDTH 14 0
BBX 13 14 1 -2
BITMAP
0F80
3040
4020
8010
8F10
9090
9088
9090
9090
9090
8D60
4200
2000
1F80
ENDCHAR
STARTCHAR 0041
ENCODING 65
SWIDTH 600 0
DWIDTH 10 0
BBX 8 10 1 1
BITMAP
18
28
28
24
44
44
42
BE
81
81
ENDCHAR
STARTCHAR 0042
ENCODING 66
SWIDTH 600 0
DWIDTH 10 0
BBX 7 12 2 0
BITMAP
F8
84
82
82
84
84
FC
82
82
82
82
FC
ENDCHAR
STARTCHAR 0043
ENCODING 67
SWIDTH 600 0
DWIDTH 10 0
BBX 8 12 1 0
BITMAP
1C
62
81
80
80
80
80
80
80
80
41
3E
ENDCHAR
STARTCHAR 0044
ENCODING 68
SWIDTH 600 0
DWIDTH 10 0
BBX 8 12 2 0
BITMAP
F8
84
82
82
81
81
81
81
81
82
82
FC
ENDCHAR
STARTCHAR 0045
ENCODING 69
SWIDTH 540 0
DWIDTH 9 0
BBX 6 12 2 0
BITMAP
FC
80
80
80
80
80
F8
80
80
80
80
F8
ENDCHAR
STARTCHAR 0046
ENCODING 70
SWIDTH 480 0
DWIDTH 8 0
BBX 6 11 2 0
BITMAP
FC
80
80
80
80
80
F8
80
80
80
80
ENDCHAR
STARTCHAR 0047
ENCODING 71
SWIDTH 660 0
DWIDTH 11 0
BBX 9 12 1 0
BITMAP
1C00
6300
8000
8000
8000
8000
8780
8080
8080
8080
4080
3F80
ENDCHAR
STARTCHAR 0048
ENCODING 72
SWIDTH 660 0
DWIDTH 11 0
BBX 8 12 2 0
BITMAP
01
81
81
81
81
81
FF
81
81
81
81
01
ENDCHAR
STARTCHAR 0049
ENCODING 73
SWIDTH 360 0
DWIDTH 6 0
BBX 4 12 1 0
BITMAP
F0
40
40
40
40
40
40
40
40
40
40
60
ENDCHAR
STARTCHAR 004A
ENCODING 74
SWIDTH 420 0
DWIDTH 7 0
BBX 6 12 0 0
BITMAP
3C
04
04
04
04
04
04
04
04
04
84
78
ENDCHAR
STARTCHAR 004B
ENCODING 75
SWIDTH 540 0
DWIDTH 9 0
BBX 7 11 2 1
BITMAP
86
88
90
A0
A0
E0
90
88
84
84
02
ENDCHAR
STARTCHAR 004C
ENCODING 76
SWIDTH 420 0
DWIDTH 7 0
BBX 5 11 2 1
BITMAP
80
80
80
80
80
80
80
80
80
80
78
ENDCHAR
STARTCHAR 004D
ENCODING 77
SWIDTH 780 0
DWIDTH 13 0
BBX 9 10 2 1
BITMAP
8080
C180
C280
A280
A480
9480
8880
8080
8080
8080
ENDCHAR
STARTCHAR 004E
ENCODING 78
SWIDTH 660 0
DWIDTH 11 0
BBX 8 12 2 0
BITMAP
01
81
C1
C1
A1
91
91
89
89
85
83
01
ENDCHAR
STARTCHAR 004F
ENCODING 79
SWIDTH 660 0
DWIDTH 11 0
BBX 9 12 1 0
BITMAP
1E00
6100
8080
8080
8080
8080
8080
8080
8080
8080
4100
3E00
ENDCHAR
STARTCHAR 0050
ENCODING 80
SWIDTH 540 0
DWIDTH 9 0
BBX 7 11 2 0
BITMAP
F8
86
82
82
82
82
FC
80
80
80
80
ENDCHAR
STARTCHAR 0051
ENCODING 81
SWIDTH 660 0
DWIDTH 11 0
BBX 9 14 1 -2
BITMAP
1E00
6100
8080
8080
8080
8080
8080
8080
8080
8080
4100
2200
1C00
0C00
ENDCHAR
STARTCHAR 0052
ENCODING 82
SWIDTH 600 0
DWIDTH 10 0
BBX 7 11 2 0
BITMAP
F8
86
82
82
82
82
FC
88
88
84
82
ENDCHAR
STARTCHAR 0053
ENCODING 83
SWIDTH 540 0
DWIDTH 9 0
BBX 7 12 1 0
BITMAP
38
C6
80
80
80
40
3C
02
02
02
02
FC
ENDCHAR
STARTCHAR 0054
ENCODING 84
SWIDTH 540 0
DWIDTH 9 0
BBX 9 12 0 0
BITMAP
FF80
0800
0800
0800
0800
0800
0800
0800
0800
0800
0800
0800
ENDCHAR
STARTCHAR 0055
ENCODING 85
SWIDTH 600 0
DWIDTH 10 0
BBX 7 11 2 1
BITMAP
82
82
82
82
82
82
82
82
82
82
FC
ENDCHAR
STARTCHAR 0056
ENCODING 86
SWIDTH 540 0
DWIDTH 9 0
BBX 9 11 0 1
BITMAP
8080
4100
4100
4100
2200
2200
2200
1400
1400
1400
0800
ENDCHAR
STARTCHAR 0057
ENCODING 87
SWIDTH 840 0
DWIDTH 14 0
BBX 14 12 0 0
BITMAP
0100
8104
8308
4508
4488
4488
2490
2850
2850
2850
1860
1020
ENDCHAR
STARTCHAR 0058
ENCODING 88
SWIDTH 540 0
DWIDTH 9 0
BBX 8 12 1 0
BITMAP
01
82
84
44
28
30
10
28
44
44
82
01
ENDCHAR
STARTCHAR 0059
ENCODING 89
SWIDTH 540 0
DWIDTH 9 0
BBX 9 12 0 0
BITMAP
8080
8100
4200
2200
2400
1400
1800
0800
0800
0800
0800
0800
ENDCHAR
STARTCHAR 005A
ENCODING 90
SWIDTH 540 0
DWIDTH 9 0
BBX 7 12 1 0
BITMAP
FE
02
04
04
08
10
10
20
40
40
80
FE
ENDCHAR
STARTCHAR 005B
ENCODING 91
SWIDTH 300 0
DWIDTH 5 0
BBX 2 15 2 -2
BITMAP
C0
80
80
80
80
80
80
80
80
80
80
80
80
80
80
ENDCHAR
STARTCHAR 005C
ENCODING 92
SWIDTH 300 0
DWIDTH 5 0
BBX 4 13 1 -2
BITMAP
80
80
80
80
40
40
40
40
20
20
20
20
10
ENDCHAR
STARTCHAR 005D
ENCODING 93
SWIDTH 300 0
DWIDTH 5 0
BBX 2 15 1 -2
BITMAP
C0
40
40
40
40
40
40
40
40
40
40
40
40
40
40
ENDCHAR
STARTCHAR 005E
ENCODING 94
SWIDTH 600 0
DWIDTH 10 0
BBX 8 6 1 6
BITMAP
18
28
44
42
82
81
ENDCHAR
STARTCHAR 005F
ENCODING 95
SWIDTH 540 0
DWIDTH 9 0
BBX 7 1 1 -3
BITMAP
FE
ENDCHAR
STARTCHAR 0060
ENCODING 96
SWIDTH 600 0
DWIDTH 10 0
BBX 2 2 3 11
BITMAP
80
40
ENDCHAR
STARTCHAR 0061
ENCODING 97
SWIDTH 480 0
DWIDTH 8 0
BBX 6 9 1 0
BITMAP
30
4C
04
04
3C
C4
84
84
F8
ENDCHAR
STARTCHAR 0062
ENCODING 98
SWIDTH 540 0
DWIDTH 9 0
BBX 6 11 2 1
BITMAP
80
80
B0
CC
84
84
84
84
84
84
F8
ENDCHAR
STARTCHAR 0063
ENCODING 99
SWIDTH 480 0
DWIDTH 8 0
BBX 6 9 1 0
BITMAP
38
C4
80
80
80
80
80
80
7C
ENDCHAR
STARTCHAR 0064
ENCODING 100
SWIDTH 540 0
DWIDTH 9 0
BBX 7 12 1 0
BITMAP
02
02
02
3A
C6
82
82
82
82
82
82
7E
ENDCHAR
STARTCHAR 0065
ENCODING 101
SWIDTH 480 0
DWIDTH 8 0
BBX 7 9 1 0
BITMAP
30
CC
82
82
FE
80
80
82
7C
ENDCHAR
STARTCHAR 0066
ENCODING 102
SWIDTH 240 0
DWIDTH 4 0
BBX 2 11 1 0
BITMAP
40
80
80
80
C0
80
80
80
80
80
80
ENDCHAR
STARTCHAR 0067
ENCODING 103
SWIDTH 480 0
DWIDTH 8 0
BBX 7 13 1 -4
BITMAP
34
CC
84
84
84
48
B0
80
7E
82
82
82
7C
ENDCHAR
STARTCHAR 0068
ENCODING 104
SWIDTH 540 0
DWIDTH 9 0
BBX 6 11 2 1
BITMAP
80
80
B0
C8
84
84
84
84
84
84
04
ENDCHAR
STARTCHAR 0069
ENCODING 105
SWIDTH 180 0
DWIDTH 3 0
BBX 1 6 1 5
BITMAP
80
80
80
80
80
80
ENDCHAR
STARTCHAR 006A
ENCODING 106
SWIDTH 180 0
DWIDTH 3 0
BBX 1 9 1 2
BITMAP
80
80
80
80
80
80
80
80
80
ENDCHAR
STARTCHAR 006B
ENCODING 107
SWIDTH 480 0
DWIDTH 8 0
BBX 5 10 2 1
BITMAP
80
80
80
80
B0
C0
C0
A0
90
88
ENDCHAR
STARTCHAR 006C
ENCODING 108
SWIDTH 240 0
DWIDTH 4 0
BBX 1 10 2 1
BITMAP
80
80
80
80
80
80
80
80
80
80
ENDCHAR
STARTCHAR 006D
ENCODING 109
SWIDTH 840 0
DWIDTH 14 0
BBX 11 9 2 0
BITMAP
3180
CE60
8420
8420
8420
8420
8420
8420
0400
ENDCHAR
STARTCHAR 006E
ENCODING 110
SWIDTH 540 0
DWIDTH 9 0
BBX 6 9 2 0
BITMAP
30
C8
84
84
84
84
84
84
04
ENDCHAR
STARTCHAR 006F
ENCODING 111
SWIDTH 540 0
DWIDTH 9 0
BBX 7 9 1 0
BITMAP
38
C4
82
82
82
82
82
84
7C
ENDCHAR
STARTCHAR 0070
ENCODING 112
SWIDTH 540 0
DWIDTH 9 0
BBX 6 11 2 -3
BITMAP
30
CC
84
84
84
84
84
84
88
F0
80
ENDCHAR
STARTCHAR 0071
ENCODING 113
SWIDTH 540 0
DWIDTH 9 0
BBX 7 12 1 -3
BITMAP
38
C6
82
82
82
82
82
82
46
3A
02
02
ENDCHAR
STARTCHAR 0072
ENCODING 114
SWIDTH 300 0
DWIDTH 5 0
BBX 2 7 2 0
BITMAP
C0
80
80
80
80
80
80
ENDCHAR
STARTCHAR 0073
ENCODING 115
SWIDTH 420 0
DWIDTH 7 0
BBX 6 9 1 0
BITMAP
30
C8
80
80
60
18
04
04
F8
ENDCHAR
STARTCHAR 0074
ENCODING 116
SWIDTH 300 0
DWIDTH 5 0
BBX 2 10 1 1
BITMAP
80
80
C0
80
80
80
80
80
80
40
ENDCHAR
STARTCHAR 0075
ENCODING 117
SWIDTH 540 0
DWIDTH 9 0
BBX 6 8 2 0
BITMAP
04
84
84
84
84
84
84
FC
ENDCHAR
STARTCHAR 0076
ENCODING 118
SWIDTH 420 0
DWIDTH 7 0
BBX 7 8 0 0
BITMAP
02
84
44
44
28
28
28
10
ENDCHAR
STARTCHAR 0077
ENCODING 119
SWIDTH 720 0
DWIDTH 12 0
BBX 10 8 1 0
BITMAP
0400
8C40
9440
9480
9280
6280
6300
2100
ENDCHAR
STARTCHAR 0078
ENCODING 120
SWIDTH 420 0
DWIDTH 7 0
BBX 6 8 1 0
BITMAP
84
88
50
20
30
50
88
04
ENDCHAR
STARTCHAR 0079
ENCODING 121
SWIDTH 420 0
DWIDTH 7 0
BBX 7 11 0 -3
BITMAP
02
84
44
44
28
28
28
10
10
20
20
ENDCHAR
STARTCHAR 007A
ENCODING 122
SWIDTH 360 0
DWIDTH 6 0
BBX 5 8 1 0
BITMAP
78
18
10
20
40
80
80
F8
ENDCHAR
STARTCHAR 007B
ENCODING 123
SWIDTH 300 0
DWIDTH 5 0
BBX 4 15 0 -2
BITMAP
30
40
40
40
40
40
40
C0
40
40
40
40
40
40
20
ENDCHAR
STARTCHAR 007C
ENCODING 124
SWIDTH 180 0
DWIDTH 3 0
BBX 1 13 1 -1
BITMAP
80
80
80
80
80
80
80
80
80
80
80
80
80
ENDCHAR
STARTCHAR 007D
ENCODING 125
SWIDTH 300 0
DWIDTH 5 0
BBX 4 15 1 -2
BITMAP
C0
40
40
40
40
40
40
30
20
40
40
40
40
40
40
ENDCHAR
STARTCHAR 007E
ENCODING 126
SWIDTH 600 0
DWIDTH 10 0
BBX 6 2 2 4
BITMAP
C0
3C
ENDCHAR
STARTCHAR 00A0
ENCODING 160
SWIDTH 180 0
DWIDTH 3 0
BBX 0 0 0 0
BITMAP
ENDCHAR
STARTCHAR 00A1
ENCODING 161
SWIDTH 240 0
DWIDTH 4 0
BBX 1 7 2 1
BITMAP
80
80
80
80
80
80
80
ENDCHAR
STARTCHAR 00A2
ENCODING 162
SWIDTH 480 0
DWIDTH 8 0
BBX 6 12 1 -2
BITMAP
10
38
D4
90
90
90
90
90
90
54
38
10
ENDCHAR
STARTCHAR 00A3
ENCODING 163
SWIDTH 540 0
DWIDTH 9 0
BBX 7 12 1 0
BITMAP
1C
62
80
80
80
40
FC
40
40
40
40
FE
ENDCHAR
STARTCHAR 00A4
ENCODING 164
SWIDTH 540 0
DWIDTH 9 0
BBX 9 9 0 1
BITMAP
0080
7F00
4100
4100
4100
4100
2100
5700
8880
ENDCHAR
STARTCHAR 00A5
ENCODING 165
SWIDTH 540 0
DWIDTH 9 0
BBX 8 11 1 0
BITMAP
01
82
42
44
28
28
FE
10
10
7C
10
ENDCHAR
STARTCHAR 00A6
ENCODING 166
SWIDTH 180 0
DWIDTH 3 0
BBX 1 13 1 -1
BITMAP
80
80
80
80
00
00
00
00
00
80
80
80
80
ENDCHAR
STARTCHAR 00A7
ENCODING 167
SWIDTH 540 0
DWIDTH 9 0
BBX 7 15 1 -3
BITMAP
3C
40
80
40
20
DC
82
82
82
64
1C
04
04
04
38
ENDCHAR
STARTCHAR 00A8
ENCODING 168
SWIDTH 600 0
DWIDTH 10 0
BBX 4 1 3 11
BITMAP
90
ENDCHAR
STARTCHAR 00A9
ENCODING 169
SWIDTH 660 0
DWIDTH 11 0
BBX 10 12 1 0
BITMAP
1E00
6100
8080
9C40
A040
A040
A040
A040
A240
9C80
8080
7F00
ENDCHAR
STARTCHAR 00AA
ENCODING 170
SWIDTH 300 0
DWIDTH 5 0
BBX 4 6 1 6
BITMAP
60
10
10
F0
90
F0
ENDCHAR
STARTCHAR 00AB
ENCODING 171
SWIDTH 420 0
DWIDTH 7 0
BBX 6 6 1 2
BITMAP
24
48
90
A0
90
6C
ENDCHAR
STARTCHAR 00AC
ENCODING 172
SWIDTH 600 0
DWIDTH 10 0
BBX 7 3 2 2
BITMAP
FE
02
02
ENDCHAR
STARTCHAR 00AD
ENCODING 173
SWIDTH 360 0
DWIDTH 6 0
BBX 2 1 2 5
BITMAP
C0
ENDCHAR
STARTCHAR 00AE
ENCODING 174
SWIDTH 420 0
DWIDTH 7 0
BBX 6 7 1 5
BITMAP
70
8C
F4
D4
B4
84
78
ENDCHAR
STARTCHAR 00AF
ENCODING 175
SWIDTH 600 0
DWIDTH 10 0
BBX 2 1 4 11
BITMAP
C0
ENDCHAR
STARTCHAR 00B0
ENCODING 176
SWIDTH 420 0
DWIDTH 7 0
BBX 6 6 1 6
BITMAP
30
C8
84
84
88
70
ENDCHAR
STARTCHAR 00B1
ENCODING 177
SWIDTH 600 0
DWIDTH 10 0
BBX 6 9 2 1
BITMAP
20
20
20
FC
20
20
00
00
FC
ENDCHAR
STARTCHAR 00B2
ENCODING 178
SWIDTH 300 0
DWIDTH 5 0
BBX 4 7 1 5
BITMAP
60
10
10
20
40
80
F0
ENDCHAR
STARTCHAR 00B3
ENCODING 179
SWIDTH 300 0
DWIDTH 5 0
BBX 3 7 2 5
BITMAP
C0
20
20
40
20
20
C0
ENDCHAR
STARTCHAR 00B4
ENCODING 180
SWIDTH 600 0
DWIDTH 10 0
BBX 1 1 5 11
BITMAP
80
ENDCHAR
STARTCHAR 00B5
ENCODING 181
SWIDTH 540 0
DWIDTH 9 0
BBX 6 10 2 -3
BITMAP
04
84
84
84
84
84
84
8C
F0
80
ENDCHAR
STARTCHAR 00B6
ENCODING 182
SWIDTH 540 0
DWIDTH 9 0
BBX 7 14 1 -2
BITMAP
3E
74
F4
F4
F4
74
14
14
14
14
14
14
14
10
ENDCHAR
STARTCHAR 00B7
ENCODING 183
SWIDTH 240 0
DWIDTH 4 0
BBX 1 1 2 5
BITMAP
80
ENDCHAR
STARTCHAR 00B8
ENCODING 184
SWIDTH 600 0
DWIDTH 10 0
BBX 1 2 5 -2
BITMAP
80
80
ENDCHAR
STARTCHAR 00B9
ENCODING 185
SWIDTH 360 0
DWIDTH 6 0
BBX 4 6 1 6
BITMAP
40
40
40
40
40
F0
ENDCHAR
STARTCHAR 00BA
ENCODING 186
SWIDTH 360 0
DWIDTH 6 0
BBX 4 6 1 6
BITMAP
60
90
90
90
90
E0
ENDCHAR
STARTCHAR 00BB
ENCODING 187
SWIDTH 420 0
DWIDTH 7 0
BBX 6 6 1 2
BITMAP
90
48
24
24
48
90
ENDCHAR
STARTCHAR 00BC
ENCODING 188
SWIDTH 840 0
DWIDTH 14 0
BBX 13 12 1 0
BITMAP
0020
4040
4080
4080
4100
4200
F210
0470
0890
0890
10F8
0010
ENDCHAR
STARTCHAR 00BD
ENCODING 189
SWIDTH 840 0
DWIDTH 14 0
BBX 13 12 1 0
BITMAP
0020
4040
4080
4080
4100
4200
F270
0408
0808
0810
1020
0070
ENDCHAR
STARTCHAR 00BE
ENCODING 190
SWIDTH 780 0
DWIDTH 13 0
BBX 11 11 2 0
BITMAP
C000
2180
2100
4200
2400
2400
C8C0
10C0
1140
2240
23E0
ENDCHAR
STARTCHAR 00BF
ENCODING 191
SWIDTH 420 0
DWIDTH 7 0
BBX 6 8 1 1
BITMAP
20
20
40
80
80
80
84
F8
ENDCHAR
STARTCHAR 00C0
ENCODING 192
SWIDTH 600 0
DWIDTH 10 0
BBX 8 14 1 1
BITMAP
20
10
00
00
18
28
28
24
44
44
42
BE
81
81
ENDCHAR
STARTCHAR 00C1
ENCODING 193
SWIDTH 600 0
DWIDTH 10 0
BBX 8 14 1 1
BITMAP
08
00
00
00
18
28
28
24
44
44
42
BE
81
81
ENDCHAR
STARTCHAR 00C2
ENCODING 194
SWIDTH 600 0
DWIDTH 10 0
BBX 8 14 1 0
BITMAP
38
00
00
00
18
28
28
24
44
44
42
BE
81
81
ENDCHAR
STARTCHAR 00C3
ENCODING 195
SWIDTH 600 0
DWIDTH 10 0
BBX 8 14 1 0
BITMAP
30
08
00
00
18
28
28
24
44
44
42
BE
81
81
ENDCHAR
STARTCHAR 00C4
ENCODING 196
SWIDTH 600 0
DWIDTH 10 0
BBX 8 10 1 3
BITMAP
18
28
28
24
44
44
42
BE
81
81
ENDCHAR
STARTCHAR 00C5
ENCODING 197
SWIDTH 600 0
DWIDTH 10 0
BBX 8 15 1 0
BITMAP
18
28
28
10
00
18
28
28
24
44
44
42
BE
81
81
ENDCHAR
STARTCHAR 00C6
ENCODING 198
SWIDTH 840 0
DWIDTH 14 0
BBX 13 12 0 0
BITMAP
03F8
0600
0600
0A00
0A00
1200
23F0
2200
5E00
4200
8200
81F0
ENDCHAR
STARTCHAR 00C7
ENCODING 199
SWIDTH 600 0
DWIDTH 10 0
BBX 8 15 1 -3
BITMAP
1C
62
81
80
80
80
80
80
80
80
41
22
1C
04
0C
ENDCHAR
STARTCHAR 00C8
ENCODING 200
SWIDTH 540 0
DWIDTH 9 0
BBX 6 15 2 1
BITMAP
40
20
00
FC
80
80
80
80
80
F8
80
80
80
80
F8
ENDCHAR
STARTCHAR 00C9
ENCODING 201
SWIDTH 540 0
DWIDTH 9 0
BBX 6 15 2 1
BITMAP
10
00
00
FC
80
80
80
80
80
F8
80
80
80
80
F8
ENDCHAR
STARTCHAR 00CA
ENCODING 202
SWIDTH 540 0
DWIDTH 9 0
BBX 6 15 2 0
BITMAP
70
00
00
FC
80
80
80
80
80
F8
80
80
80
80
F8
ENDCHAR
STARTCHAR 00CB
ENCODING 203
SWIDTH 540 0
DWIDTH 9 0
BBX 6 12 2 2
BITMAP
FC
80
80
80
80
80
F8
80
80
80
80
F8
ENDCHAR
STARTCHAR 00CC
ENCODING 204
SWIDTH 360 0
DWIDTH 6 0
BBX 4 15 1 1
BITMAP
40
00
00
F0
40
40
40
40
40
40
40
40
40
40
60
ENDCHAR
STARTCHAR 00CD
ENCODING 205
SWIDTH 360 0
DWIDTH 6 0
BBX 4 15 1 1
BITMAP
20
00
00
F0
40
40
40
40
40
40
40
40
40
40
60
ENDCHAR
STARTCHAR 00CE
ENCODING 206
SWIDTH 360 0
DWIDTH 6 0
BBX 4 15 1 0
BITMAP
E0
80
00
F0
40
40
40
40
40
40
40
40
40
40
60
ENDCHAR
STARTCHAR 00CF
ENCODING 207
SWIDTH 360 0
DWIDTH 6 0
BBX 4 12 1 2
BITMAP
F0
40
40
40
40
40
40
40
40
40
40
60
ENDCHAR
STARTCHAR 00D0
ENCODING 208
SWIDTH 660 0
DWIDTH 11 0
BBX 9 12 1 0
BITMAP
7C00
8200
8100
8080
8080
8080
E080
8080
8080
8100
8100
FE00
ENDCHAR
STARTCHAR 00D1
ENCODING 209
SWIDTH 660 0
DWIDTH 11 0
BBX 8 15 2 0
BITMAP
20
18
00
01
81
C1
C1
A1
91
91
89
89
85
83
01
ENDCHAR
STARTCHAR 00D2
ENCODING 210
SWIDTH 660 0
DWIDTH 11 0
BBX 9 15 1 1
BITMAP
1000
0800
0000
1E00
6100
8080
8080
8080
8080
8080
8080
8080
8080
4100
3E00
ENDCHAR
STARTCHAR 00D3
ENCODING 211
SWIDTH 660 0
DWIDTH 11 0
BBX 9 15 1 1
BITMAP
0400
0000
0000
1E00
6100
8080
8080
8080
8080
8080
8080
8080
8080
4100
3E00
ENDCHAR
STARTCHAR 00D4
ENCODING 212
SWIDTH 660 0
DWIDTH 11 0
BBX 9 15 1 0
BITMAP
1C00
0200
0000
1E00
6100
8080
8080
8080
8080
8080
8080
8080
8080
4100
3E00
ENDCHAR
STARTCHAR 00D5
ENCODING 213
SWIDTH 660 0
DWIDTH 11 0
BBX 9 15 1 0
BITMAP
1000
0C00
0000
1E00
6100
8080
8080
8080
8080
8080
8080
8080
8080
4100
3E00
ENDCHAR
STARTCHAR 00D6
ENCODING 214
SWIDTH 660 0
DWIDTH 11 0
BBX 9 12 1 2
BITMAP
1E00
6100
8080
8080
8080
8080
8080
8080
8080
8080
4100
3E00
ENDCHAR
STARTCHAR 00D7
ENCODING 215
SWIDTH 600 0
DWIDTH 10 0
BBX 6 6 2 2
BITMAP
84
48
30
30
48
84
ENDCHAR
STARTCHAR 00D8
ENCODING 216
SWIDTH 660 0
DWIDTH 11 0
BBX 9 13 1 -1
BITMAP
1E80
6100
8300
8280
8480
8880
8880
9080
A080
A080
4100
A200
1C00
ENDCHAR
STARTCHAR 00D9
ENCODING 217
SWIDTH 600 0
DWIDTH 10 0
BBX 7 15 2 1
BITMAP
20
10
00
00
82
82
82
82
82
82
82
82
82
82
FC
ENDCHAR
STARTCHAR 00DA
ENCODING 218
SWIDTH 600 0
DWIDTH 10 0
BBX 7 15 2 1
BITMAP
18
10
00
00
82
82
82
82
82
82
82
82
82
82
FC
ENDCHAR
STARTCHAR 00DB
ENCODING 219
SWIDTH 600 0
DWIDTH 10 0
BBX 7 15 2 0
BITMAP
30
48
00
00
82
82
82
82
82
82
82
82
82
82
FC
ENDCHAR
STARTCHAR 00DC
ENCODING 220
SWIDTH 600 0
DWIDTH 10 0
BBX 7 11 2 3
BITMAP
82
82
82
82
82
82
82
82
82
82
FC
ENDCHAR
STARTCHAR 00DD
ENCODING 221
SWIDTH 540 0
DWIDTH 9 0
BBX 9 15 0 1
BITMAP
0400
0800
0000
8080
8100
4200
2200
2400
1400
1800
0800
0800
0800
0800
0800
ENDCHAR
STARTCHAR 00DE
ENCODING 222
SWIDTH 540 0
DWIDTH 9 0
BBX 7 10 2 1
BITMAP
80
80
FC
82
82
82
82
84
F8
80
ENDCHAR
STARTCHAR 00DF
ENCODING 223
SWIDTH 600 0
DWIDTH 10 0
BBX 8 13 2 0
BITMAP
10
6C
84
82
82
9C
A0
A0
98
86
81
81
BE
ENDCHAR
STARTCHAR 00E0
ENCODING 224
SWIDTH 480 0
DWIDTH 8 0
BBX 6 12 1 1
BITMAP
20
00
00
30
4C
04
04
3C
C4
84
84
F8
ENDCHAR
STARTCHAR 00E1
ENCODING 225
SWIDTH 480 0
DWIDTH 8 0
BBX 6 12 1 1
BITMAP
10
00
00
30
4C
04
04
3C
C4
84
84
F8
ENDCHAR
STARTCHAR 00E2
ENCODING 226
SWIDTH 480 0
DWIDTH 8 0
BBX 6 12 1 0
BITMAP
30
48
00
30
4C
04
04
3C
C4
84
84
F8
ENDCHAR
STARTCHAR 00E3
ENCODING 227
SWIDTH 480 0
DWIDTH 8 0
BBX 6 12 1 0
BITMAP
60
18
00
30
4C
04
04
3C
C4
84
84
F8
ENDCHAR
STARTCHAR 00E4
ENCODING 228
SWIDTH 480 0
DWIDTH 8 0
BBX 6 9 1 3
BITMAP
30
4C
04
04
3C
C4
84
84
F8
ENDCHAR
STARTCHAR 00E5
ENCODING 229
SWIDTH 480 0
DWIDTH 8 0
BBX 6 13 1 0
BITMAP
30
48
50
20
30
4C
04
04
3C
C4
84
84
F8
ENDCHAR
STARTCHAR 00E6
ENCODING 230
SWIDTH 840 0
DWIDTH 14 0
BBX 12 9 1 0
BITMAP
30C0
4B20
0410
0410
3FF0
C400
8400
8400
FBF0
ENDCHAR
STARTCHAR 00E7
ENCODING 231
SWIDTH 480 0
DWIDTH 8 0
BBX 6 12 1 -3
BITMAP
38
C4
80
80
80
80
80
80
44
38
08
18
ENDCHAR
STARTCHAR 00E8
ENCODING 232
SWIDTH 480 0
DWIDTH 8 0
BBX 7 12 1 1
BITMAP
20
10
00
30
CC
82
82
FE
80
80
82
7C
ENDCHAR
STARTCHAR 00E9
ENCODING 233
SWIDTH 480 0
DWIDTH 8 0
BBX 7 12 1 1
BITMAP
18
10
00
30
CC
82
82
FE
80
80
82
7C
ENDCHAR
STARTCHAR 00EA
ENCODING 234
SWIDTH 480 0
DWIDTH 8 0
BBX 7 12 1 0
BITMAP
38
40
00
30
CC
82
82
FE
80
80
82
7C
ENDCHAR
STARTCHAR 00EB
ENCODING 235
SWIDTH 480 0
DWIDTH 8 0
BBX 7 9 1 3
BITMAP
30
CC
82
82
FE
80
80
82
7C
ENDCHAR
STARTCHAR 00EC
ENCODING 236
SWIDTH 180 0
DWIDTH 3 0
BBX 2 11 0 1
BITMAP
80
40
00
00
00
40
40
40
40
40
40
ENDCHAR
STARTCHAR 00ED
ENCODING 237
SWIDTH 180 0
DWIDTH 3 0
BBX 2 11 1 1
BITMAP
40
00
00
00
00
80
80
80
80
80
80
ENDCHAR
STARTCHAR 00EE
ENCODING 238
SWIDTH 180 0
DWIDTH 3 0
BBX 3 11 0 0
BITMAP
E0
00
00
00
00
40
40
40
40
40
40
ENDCHAR
STARTCHAR 00EF
ENCODING 239
SWIDTH 180 0
DWIDTH 3 0
BBX 4 11 0 0
BITMAP
90
00
00
00
00
40
40
40
40
40
40
ENDCHAR
STARTCHAR 00F0
ENCODING 240
SWIDTH 540 0
DWIDTH 9 0
BBX 7 12 1 1
BITMAP
08
10
08
04
7C
82
82
82
82
82
84
7C
ENDCHAR
STARTCHAR 00F1
ENCODING 241
SWIDTH 540 0
DWIDTH 9 0
BBX 6 12 2 0
BITMAP
40
30
00
30
C8
84
84
84
84
84
84
04
ENDCHAR
STARTCHAR 00F2
ENCODING 242
SWIDTH 540 0
DWIDTH 9 0
BBX 7 12 1 1
BITMAP
20
10
00
38
C4
82
82
82
82
82
84
7C
ENDCHAR
STARTCHAR 00F3
ENCODING 243
SWIDTH 540 0
DWIDTH 9 0
BBX 7 12 1 1
BITMAP
08
10
00
38
C4
82
82
82
82
82
84
7C
ENDCHAR
STARTCHAR 00F4
ENCODING 244
SWIDTH 540 0
DWIDTH 9 0
BBX 7 12 1 0
BITMAP
38
04
00
38
C4
82
82
82
82
82
84
7C
ENDCHAR
STARTCHAR 00F5
ENCODING 245
SWIDTH 540 0
DWIDTH 9 0
BBX 7 12 1 0
BITMAP
20
18
00
38
C4
82
82
82
82
82
84
7C
ENDCHAR
STARTCHAR 00F6
ENCODING 246
SWIDTH 540 0
DWIDTH 9 0
BBX 7 9 1 3
BITMAP
38
C4
82
82
82
82
82
84
7C
ENDCHAR
STARTCHAR 00F7
ENCODING 247
SWIDTH 600 0
DWIDTH 10 0
BBX 6 5 2 1
BITMAP
30
00
00
00
FC
ENDCHAR
STARTCHAR 00F8
ENCODING 248
SWIDTH 540 0
DWIDTH 9 0
BBX 7 9 1 0
BITMAP
38
C4
86
8A
92
A2
C2
82
FC
ENDCHAR
STARTCHAR 00F9
ENCODING 249
SWIDTH 540 0
DWIDTH 9 0
BBX 6 12 2 1
BITMAP
40
20
00
00
04
84
84
84
84
84
84
FC
ENDCHAR
STARTCHAR 00FA
ENCODING 250
SWIDTH 540 0
DWIDTH 9 0
BBX 6 12 2 1
BITMAP
10
20
00
00
04
84
84
84
84
84
84
FC
ENDCHAR
STARTCHAR 00FB
ENCODING 251
SWIDTH 540 0
DWIDTH 9 0
BBX 6 12 2 0
BITMAP
70
08
00
00
04
84
84
84
84
84
84
FC
ENDCHAR
STARTCHAR 00FC
ENCODING 252
SWIDTH 540 0
DWIDTH 9 0
BBX 6 8 2 4
BITMAP
04
84
84
84
84
84
84
FC
ENDCHAR
STARTCHAR 00FD
ENCODING 253
SWIDTH 420 0
DWIDTH 7 0
BBX 7 15 0 -2
BITMAP
08
00
00
00
02
84
44
44
28
28
28
10
10
20
20
ENDCHAR
STARTCHAR 00FE
ENCODING 254
SWIDTH 540 0
DWIDTH 9 0
BBX 6 13 2 -2
BITMAP
80
80
B0
CC
84
84
84
84
84
84
88
F0
80
ENDCHAR
STARTCHAR 00FF
ENCODING 255
SWIDTH 420 0
DWIDTH 7 0
BBX 7 11 0 1
BITMAP
02
84
44
44
28
28
28
10
10
20
20
ENDCHAR
STARTCHAR 0100
ENCODING 256
SWIDTH 600 0
DWIDTH 10 0
BBX 8 13 1 0
BITMAP
18
00
00
18
28
28
24
44
44
42
BE
81
81
ENDCHAR
STARTCHAR 0101
ENCODING 257
SWIDTH 480 0
DWIDTH 8 0
BBX 6 11 1 0
BITMAP
30
00
30
4C
04
04
3C
C4
84
84
F8
ENDCHAR
STARTCHAR 0102
ENCODING 258
SWIDTH 600 0
DWIDTH 10 0
BBX 8 13 1 1
BITMAP
2C
10
00
18
28
28
24
44
44
42
BE
81
81
ENDCHAR
STARTCHAR 0103
ENCODING 259
SWIDTH 480 0
DWIDTH 8 0
BBX 6 12 1 0
BITMAP
40
30
00
30
4C
04
04
3C
C4
84
84
F8
ENDCHAR
STARTCHAR 0104
ENCODING 260
SWIDTH 600 0
DWIDTH 10 0
BBX 8 14 1 -2
BITMAP
18
28
28
24
44
44
42
BE
81
81
01
01
02
03
ENDCHAR
STARTCHAR 0105
ENCODING 261
SWIDTH 480 0
DWIDTH 8 0
BBX 7 12 1 -3
BITMAP
30
4C
04
04
3C
C4
84
84
8C
72
04
0E
ENDCHAR
STARTCHAR 0106
ENCODING 262
SWIDTH 600 0
DWIDTH 10 0
BBX 8 15 1 1
BITMAP
0C
08
00
1C
62
81
80
80
80
80
80
80
80
41
3E
ENDCHAR
STARTCHAR 0107
ENCODING 263
SWIDTH 480 0
DWIDTH 8 0
BBX 6 12 1 1
BITMAP
08
10
00
38
C4
80
80
80
80
80
80
7C
ENDCHAR
STARTCHAR 0108
ENCODING 264
SWIDTH 600 0
DWIDTH 10 0
BBX 8 15 1 0
BITMAP
1C
20
00
1C
62
81
80
80
80
80
80
80
80
41
3E
ENDCHAR
STARTCHAR 0109
ENCODING 265
SWIDTH 480 0
DWIDTH 8 0
BBX 6 12 1 0
BITMAP
38
04
00
38
C4
80
80
80
80
80
80
7C
ENDCHAR
STARTCHAR 010A
ENCODING 266
SWIDTH 600 0
DWIDTH 10 0
BBX 8 15 1 0
BITMAP
08
00
00
1C
62
81
80
80
80
80
80
80
80
41
3E
ENDCHAR
STARTCHAR 010B
ENCODING 267
SWIDTH 480 0
DWIDTH 8 0
BBX 6 12 1 0
BITMAP
10
00
00
38
C4
80
80
80
80
80
80
7C
ENDCHAR
STARTCHAR 010C
ENCODING 268
SWIDTH 600 0
DWIDTH 10 0
BBX 8 14 1 1
BITMAP
1C
00
1C
62
81
80
80
80
80
80
80
80
41
3E
ENDCHAR
STARTCHAR 010D
ENCODING 269
SWIDTH 480 0
DWIDTH 8 0
BBX 6 11 1 1
BITMAP
38
00
38
C4
80
80
80
80
80
80
7C
ENDCHAR
STARTCHAR 010E
ENCODING 270
SWIDTH 600 0
DWIDTH 10 0
BBX 8 15 2 0
BITMAP
48
30
00
F8
84
82
82
81
81
81
81
81
82
82
FC
ENDCHAR
STARTCHAR 010F
ENCODING 271
SWIDTH 540 0
DWIDTH 9 0
BBX 9 12 1 0
BITMAP
0280
0280
0200
3A00
C600
8200
8200
8200
8200
8200
8200
7E00
ENDCHAR
STARTCHAR 0110
ENCODING 272
SWIDTH 660 0
DWIDTH 11 0
BBX 9 12 1 0
BITMAP
7C00
8200
8100
8080
8080
8080
E080
8080
8080
8100
8100
FE00
ENDCHAR
STARTCHAR 0111
ENCODING 273
SWIDTH 540 0
DWIDTH 9 0
BBX 8 12 1 0
BITMAP
02
0F
02
3A
C6
82
82
82
82
82
82
7E
ENDCHAR
STARTCHAR 0112
ENCODING 274
SWIDTH 540 0
DWIDTH 9 0
BBX 6 14 2 0
BITMAP
30
00
FC
80
80
80
80
80
F8
80
80
80
80
F8
ENDCHAR
STARTCHAR 0113
ENCODING 275
SWIDTH 480 0
DWIDTH 8 0
BBX 7 11 1 0
BITMAP
38
00
30
CC
82
82
FE
80
80
82
7C
ENDCHAR
STARTCHAR 0114
ENCODING 276
SWIDTH 540 0
DWIDTH 9 0
BBX 6 14 2 1
BITMAP
58
20
FC
80
80
80
80
80
F8
80
80
80
80
F8
ENDCHAR
STARTCHAR 0115
ENCODING 277
SWIDTH 480 0
DWIDTH 8 0
BBX 7 11 1 1
BITMAP
28
10
30
CC
82
82
FE
80
80
82
7C
ENDCHAR
STARTCHAR 0116
ENCODING 278
SWIDTH 540 0
DWIDTH 9 0
BBX 6 12 2 3
BITMAP
FC
80
80
80
80
80
F8
80
80
80
80
F8
ENDCHAR
STARTCHAR 0117
ENCODING 279
SWIDTH 480 0
DWIDTH 8 0
BBX 7 12 1 0
BITMAP
10
00
00
30
CC
82
82
FE
80
80
82
7C
ENDCHAR
STARTCHAR 0118
ENCODING 280
SWIDTH 540 0
DWIDTH 9 0
BBX 6 15 2 -3
BITMAP
FC
80
80
80
80
80
F8
80
80
80
80
80
7C
10
08
ENDCHAR
STARTCHAR 0119
ENCODING 281
SWIDTH 480 0
DWIDTH 8 0
BBX 7 12 1 -3
BITMAP
30
CC
82
82
FE
80
80
80
44
38
20
30
ENDCHAR
STARTCHAR 011A
ENCODING 282
SWIDTH 540 0
DWIDTH 9 0
BBX 6 15 2 0
BITMAP
48
30
00
FC
80
80
80
80
80
F8
80
80
80
80
F8
ENDCHAR
STARTCHAR 011B
ENCODING 283
SWIDTH 480 0
DWIDTH 8 0
BBX 7 11 1 1
BITMAP
38
00
30
CC
82
82
FE
80
80
82
7C
ENDCHAR
STARTCHAR 011C
ENCODING 284
SWIDTH 660 0
DWIDTH 11 0
BBX 9 15 1 0
BITMAP
1C00
0200
0000
1C00
6300
8000
8000
8000
8000
8780
8080
8080
8080
4080
3F80
ENDCHAR
STARTCHAR 011D
ENCODING 285
SWIDTH 480 0
DWIDTH 8 0
BBX 7 16 1 -4
BITMAP
30
48
00
30
CC
84
84
84
48
B0
80
7E
82
82
82
7C
ENDCHAR
STARTCHAR 011E
ENCODING 286
SWIDTH 660 0
DWIDTH 11 0
BBX 9 15 1 0
BITMAP
0200
1400
0800
1C00
6300
8000
8000
8000
8000
8780
8080
8080
8080
4080
3F80
ENDCHAR
STARTCHAR 011F
ENCODING 287
SWIDTH 480 0
DWIDTH 8 0
BBX 7 15 1 -3
BITMAP
28
10
30
CC
84
84
84
48
B0
80
7E
82
82
82
7C
ENDCHAR
STARTCHAR 0120
ENCODING 288
SWIDTH 660 0
DWIDTH 11 0
BBX 9 12 1 3
BITMAP
1C00
6300
8000
8000
8000
8000
8780
8080
8080
8080
4080
3F80
ENDCHAR
STARTCHAR 0121
ENCODING 289
SWIDTH 480 0
DWIDTH 8 0
BBX 7 16 1 -4
BITMAP
10
00
00
30
CC
84
84
84
48
B0
80
7E
82
82
82
7C
ENDCHAR
STARTCHAR 0122
ENCODING 290
SWIDTH 660 0
DWIDTH 11 0
BBX 9 15 1 -4
BITMAP
1C00
6300
8000
8000
8000
8000
8780
8080
8080
8080
4080
2380
1C00
0800
0800
ENDCHAR
STARTCHAR 0123
ENCODING 291
SWIDTH 480 0
DWIDTH 8 0
BBX 7 16 1 -4
BITMAP
10
10
00
30
CC
84
84
84
48
B0
80
7E
82
82
82
7C
ENDCHAR
STARTCHAR 0124
ENCODING 292
SWIDTH 660 0
DWIDTH 11 0
BBX 8 15 2 0
BITMAP
38
04
00
01
81
81
81
81
81
FF
81
81
81
81
01
ENDCHAR
STARTCHAR 0125
ENCODING 293
SWIDTH 540 0
DWIDTH 9 0
BBX 8 15 0 0
BITMAP
60
90
00
00
40
40
4C
32
41
41
41
41
41
41
01
ENDCHAR
STARTCHAR 0126
ENCODING 294
SWIDTH 660 0
DWIDTH 11 0
BBX 9 12 1 0
BITMAP
0080
8080
8080
FF80
8080
8080
FF80
8080
8080
8080
8080
0080
ENDCHAR
STARTCHAR 0127
ENCODING 295
SWIDTH 540 0
DWIDTH 9 0
BBX 7 11 1 1
BITMAP
F0
80
98
64
82
82
82
82
82
82
02
ENDCHAR
STARTCHAR 0128
ENCODING 296
SWIDTH 360 0
DWIDTH 6 0
BBX 4 15 1 0
BITMAP
C0
30
00
F0
40
40
40
40
40
40
40
40
40
40
60
ENDCHAR
STARTCHAR 0129
ENCODING 297
SWIDTH 180 0
DWIDTH 3 0
BBX 3 11 0 0
BITMAP
C0
20
00
00
00
40
40
40
40
40
40
ENDCHAR
STARTCHAR 012A
ENCODING 298
SWIDTH 360 0
DWIDTH 6 0
BBX 4 14 1 0
BITMAP
60
00
F0
40
40
40
40
40
40
40
40
40
40
60
ENDCHAR
STARTCHAR 012B
ENCODING 299
SWIDTH 180 0
DWIDTH 3 0
BBX 2 10 1 0
BITMAP
C0
00
00
00
80
80
80
80
80
80
ENDCHAR
STARTCHAR 012C
ENCODING 300
SWIDTH 360 0
DWIDTH 6 0
BBX 4 15 1 0
BITMAP
80
70
00
F0
40
40
40
40
40
40
40
40
40
40
60
ENDCHAR
STARTCHAR 012D
ENCODING 301
SWIDTH 180 0
DWIDTH 3 0
BBX 4 10 0 1
BITMAP
B0
40
00
00
40
40
40
40
40
40
ENDCHAR
STARTCHAR 012E
ENCODING 302
SWIDTH 360 0
DWIDTH 6 0
BBX 4 15 1 -3
BITMAP
F0
40
40
40
40
40
40
40
40
40
40
40
30
40
20
ENDCHAR
STARTCHAR 012F
ENCODING 303
SWIDTH 180 0
DWIDTH 3 0
BBX 2 10 0 2
BITMAP
40
40
40
40
40
40
40
40
80
C0
ENDCHAR
STARTCHAR 0130
ENCODING 304
SWIDTH 360 0
DWIDTH 6 0
BBX 4 12 1 3
BITMAP
F0
40
40
40
40
40
40
40
40
40
40
60
ENDCHAR
STARTCHAR 0131
ENCODING 305
SWIDTH 180 0
DWIDTH 3 0
BBX 1 6 1 1
BITMAP
80
80
80
80
80
80
ENDCHAR
STARTCHAR 0132
ENCODING 306
SWIDTH 600 0
DWIDTH 10 0
BBX 7 12 2 0
BITMAP
1E
82
82
82
82
82
02
02
02
02
04
FC
ENDCHAR
STARTCHAR 0133
ENCODING 307
SWIDTH 420 0
DWIDTH 7 0
BBX 4 14 2 -3
BITMAP
10
00
00
00
00
90
90
90
90
90
90
10
10
10
ENDCHAR
STARTCHAR 0134
ENCODING 308
SWIDTH 420 0
DWIDTH 7 0
BBX 6 15 0 0
BITMAP
38
04
00
3C
04
04
04
04
04
04
04
04
04
84
78
ENDCHAR
STARTCHAR 0135
ENCODING 309
SWIDTH 180 0
DWIDTH 3 0
BBX 3 15 0 -3
BITMAP
E0
00
00
00
00
40
40
40
40
40
40
40
40
40
40
ENDCHAR
STARTCHAR 0136
ENCODING 310
SWIDTH 540 0
DWIDTH 9 0
BBX 7 14 2 -3
BITMAP
86
88
90
A0
A0
E0
90
88
84
84
02
00
10
20
ENDCHAR
STARTCHAR 0137
ENCODING 311
SWIDTH 480 0
DWIDTH 8 0
BBX 5 14 2 -3
BITMAP
80
80
80
80
B0
C0
C0
A0
90
88
00
00
20
20
ENDCHAR
STARTCHAR 0138
ENCODING 312
SWIDTH 480 0
DWIDTH 8 0
BBX 5 7 2 0
BITMAP
08
90
A0
C0
A0
90
88
ENDCHAR
STARTCHAR 0139
ENCODING 313
SWIDTH 420 0
DWIDTH 7 0
BBX 6 15 1 1
BITMAP
40
00
00
00
80
80
80
80
80
80
80
80
80
80
3C
ENDCHAR
STARTCHAR 013A
ENCODING 314
SWIDTH 240 0
DWIDTH 4 0
BBX 2 14 1 1
BITMAP
40
00
00
00
80
80
80
80
80
80
80
80
80
80
ENDCHAR
STARTCHAR 013B
ENCODING 315
SWIDTH 420 0
DWIDTH 7 0
BBX 5 15 2 -3
BITMAP
80
80
80
80
80
80
80
80
80
80
00
78
20
20
20
ENDCHAR
STARTCHAR 013C
ENCODING 316
SWIDTH 240 0
DWIDTH 4 0
BBX 1 14 2 -3
BITMAP
80
80
80
80
80
80
80
80
80
80
00
00
80
80
ENDCHAR
STARTCHAR 013D
ENCODING 317
SWIDTH 420 0
DWIDTH 7 0
BBX 5 11 2 1
BITMAP
C0
80
80
80
80
80
80
80
80
80
78
ENDCHAR
STARTCHAR 013E
ENCODING 318
SWIDTH 240 0
DWIDTH 4 0
BBX 2 10 2 1
BITMAP
C0
80
80
80
80
80
80
80
80
80
ENDCHAR
STARTCHAR 013F
ENCODING 319
SWIDTH 420 0
DWIDTH 7 0
BBX 5 11 2 1
BITMAP
80
80
80
80
80
80
80
80
80
80
78
ENDCHAR
STARTCHAR 0140
ENCODING 320
SWIDTH 240 0
DWIDTH 4 0
BBX 3 10 2 1
BITMAP
80
80
80
80
80
80
A0
80
80
80
ENDCHAR
STARTCHAR 0141
ENCODING 321
SWIDTH 420 0
DWIDTH 7 0
BBX 6 11 1 1
BITMAP
80
80
80
80
88
70
80
80
80
80
7C
ENDCHAR
STARTCHAR 0142
ENCODING 322
SWIDTH 240 0
DWIDTH 4 0
BBX 3 11 1 1
BITMAP
80
80
80
80
A0
C0
80
80
80
80
40
ENDCHAR
STARTCHAR 0143
ENCODING 323
SWIDTH 660 0
DWIDTH 11 0
BBX 8 15 2 1
BITMAP
08
00
00
01
81
C1
C1
A1
91
91
89
89
85
83
01
ENDCHAR
STARTCHAR 0144
ENCODING 324
SWIDTH 540 0
DWIDTH 9 0
BBX 6 12 2 1
BITMAP
10
00
00
30
C8
84
84
84
84
84
84
04
ENDCHAR
STARTCHAR 0145
ENCODING 325
SWIDTH 660 0
DWIDTH 11 0
BBX 8 15 2 -4
BITMAP
01
81
C1
C1
A1
91
91
89
89
85
83
01
00
10
10
ENDCHAR
STARTCHAR 0146
ENCODING 326
SWIDTH 540 0
DWIDTH 9 0
BBX 6 12 2 -4
BITMAP
30
C8
84
84
84
84
84
84
04
00
20
20
ENDCHAR
STARTCHAR 0147
ENCODING 327
SWIDTH 660 0
DWIDTH 11 0
BBX 8 15 2 0
BITMAP
20
18
00
01
81
C1
C1
A1
91
91
89
89
85
83
01
ENDCHAR
STARTCHAR 0148
ENCODING 328
SWIDTH 540 0
DWIDTH 9 0
BBX 6 12 2 0
BITMAP
40
30
00
30
C8
84
84
84
84
84
84
04
ENDCHAR
STARTCHAR 0149
ENCODING 329
SWIDTH 720 0
DWIDTH 12 0
BBX 10 12 1 1
BITMAP
4000
8000
8000
0300
0CC0
0840
0840
0840
0840
0840
0840
0800
ENDCHAR
STARTCHAR 014A
ENCODING 330
SWIDTH 660 0
DWIDTH 11 0
BBX 8 15 2 -3
BITMAP
01
81
C1
C1
A1
91
91
89
89
85
83
01
01
01
01
ENDCHAR
STARTCHAR 014B
ENCODING 331
SWIDTH 540 0
DWIDTH 9 0
BBX 6 12 2 -3
BITMAP
30
C8
84
84
84
84
84
84
04
04
04
04
ENDCHAR
STARTCHAR 014C
ENCODING 332
SWIDTH 660 0
DWIDTH 11 0
BBX 9 14 1 0
BITMAP
0C00
0000
1E00
6100
8080
8080
8080
8080
8080
8080
8080
8080
4100
3E00
ENDCHAR
STARTCHAR 014D
ENCODING 333
SWIDTH 540 0
DWIDTH 9 0
BBX 7 11 1 0
BITMAP
38
00
38
C4
82
82
82
82
82
84
7C
ENDCHAR
STARTCHAR 014E
ENCODING 334
SWIDTH 660 0
DWIDTH 11 0
BBX 9 15 1 0
BITMAP
0200
1400
0800
1E00
6100
8080
8080
8080
8080
8080
8080
8080
8080
4100
3E00
ENDCHAR
STARTCHAR 014F
ENCODING 335
SWIDTH 540 0
DWIDTH 9 0
BBX 7 11 1 1
BITMAP
28
10
38
C4
82
82
82
82
82
84
7C
ENDCHAR
STARTCHAR 0150
ENCODING 336
SWIDTH 660 0
DWIDTH 11 0
BBX 9 15 1 1
BITMAP
0A00
1200
0000
1E00
6100
8080
8080
8080
8080
8080
8080
8080
8080
4100
3E00
ENDCHAR
STARTCHAR 0151
ENCODING 337
SWIDTH 540 0
DWIDTH 9 0
BBX 7 12 1 1
BITMAP
34
20
00
38
C4
82
82
82
82
82
84
7C
ENDCHAR
STARTCHAR 0152
ENCODING 338
SWIDTH 960 0
DWIDTH 16 0
BBX 14 12 1 0
BITMAP
1FFC
6100
8100
8100
8100
8100
81F8
8100
8100
8100
4100
3FF8
ENDCHAR
STARTCHAR 0153
ENCODING 339
SWIDTH 900 0
DWIDTH 15 0
BBX 13 9 1 0
BITMAP
3860
C598
8208
8208
81F8
8200
8200
8500
7CF0
ENDCHAR
STARTCHAR 0154
ENCODING 340
SWIDTH 600 0
DWIDTH 10 0
BBX 7 14 2 1
BITMAP
10
00
00
F8
86
82
82
82
82
FC
88
88
84
82
ENDCHAR
STARTCHAR 0155
ENCODING 341
SWIDTH 300 0
DWIDTH 5 0
BBX 3 11 2 1
BITMAP
20
00
00
00
C0
80
80
80
80
80
80
ENDCHAR
STARTCHAR 0156
ENCODING 342
SWIDTH 600 0
DWIDTH 10 0
BBX 7 16 2 -4
BITMAP
F8
86
82
82
82
82
FC
88
88
84
82
00
00
00
20
20
ENDCHAR
STARTCHAR 0157
ENCODING 343
SWIDTH 300 0
DWIDTH 5 0
BBX 3 12 1 -4
BITMAP
60
80
80
80
80
80
80
00
00
00
80
80
ENDCHAR
STARTCHAR 0158
ENCODING 344
SWIDTH 600 0
DWIDTH 10 0
BBX 7 14 2 0
BITMAP
48
30
00
F8
86
82
82
82
82
FC
88
88
84
82
ENDCHAR
STARTCHAR 0159
ENCODING 345
SWIDTH 300 0
DWIDTH 5 0
BBX 4 11 1 0
BITMAP
40
30
00
00
60
80
80
80
80
80
80
ENDCHAR
STARTCHAR 015A
ENCODING 346
SWIDTH 540 0
DWIDTH 9 0
BBX 7 15 1 1
BITMAP
18
10
00
38
C6
80
80
80
40
3C
02
02
02
02
FC
ENDCHAR
STARTCHAR 015B
ENCODING 347
SWIDTH 420 0
DWIDTH 7 0
BBX 6 12 1 1
BITMAP
10
00
00
30
C8
80
80
60
18
04
04
F8
ENDCHAR
STARTCHAR 015C
ENCODING 348
SWIDTH 540 0
DWIDTH 9 0
BBX 7 15 1 0
BITMAP
38
40
00
38
C6
80
80
80
40
3C
02
02
02
02
FC
ENDCHAR
STARTCHAR 015D
ENCODING 349
SWIDTH 420 0
DWIDTH 7 0
BBX 6 12 1 0
BITMAP
70
08
00
30
C8
80
80
60
18
04
04
F8
ENDCHAR
STARTCHAR 015E
ENCODING 350
SWIDTH 540 0
DWIDTH 9 0
BBX 7 15 1 -3
BITMAP
38
C6
80
80
80
40
3C
02
02
02
02
44
38
08
18
ENDCHAR
STARTCHAR 015F
ENCODING 351
SWIDTH 420 0
DWIDTH 7 0
BBX 6 12 1 -3
BITMAP
30
C8
80
80
60
18
04
04
88
70
10
10
ENDCHAR
STARTCHAR 0160
ENCODING 352
SWIDTH 540 0
DWIDTH 9 0
BBX 7 14 1 1
BITMAP
38
00
38
C6
80
80
80
40
3C
02
02
02
02
FC
ENDCHAR
STARTCHAR 0161
ENCODING 353
SWIDTH 420 0
DWIDTH 7 0
BBX 6 12 1 0
BITMAP
40
30
00
30
C8
80
80
60
18
04
04
F8
ENDCHAR
STARTCHAR 0162
ENCODING 354
SWIDTH 540 0
DWIDTH 9 0
BBX 9 15 0 -4
BITMAP
FF80
0800
0800
0800
0800
0800
0800
0800
0800
0800
0800
0800
0000
0800
0800
ENDCHAR
STARTCHAR 0163
ENCODING 355
SWIDTH 300 0
DWIDTH 5 0
BBX 3 13 1 -3
BITMAP
80
80
C0
80
80
80
80
80
80
00
40
20
40
ENDCHAR
STARTCHAR 0164
ENCODING 356
SWIDTH 540 0
DWIDTH 9 0
BBX 9 15 0 0
BITMAP
1000
0C00
0000
FF80
0800
0800
0800
0800
0800
0800
0800
0800
0800
0800
0800
ENDCHAR
STARTCHAR 0165
ENCODING 357
SWIDTH 300 0
DWIDTH 5 0
BBX 4 12 1 0
BITMAP
10
10
80
80
C0
80
80
80
80
80
80
40
ENDCHAR
STARTCHAR 0166
ENCODING 358
SWIDTH 540 0
DWIDTH 9 0
BBX 9 12 0 0
BITMAP
FF80
0800
0800
0800
0800
0800
3E00
0800
0800
0800
0800
0800
ENDCHAR
STARTCHAR 0167
ENCODING 359
SWIDTH 300 0
DWIDTH 5 0
BBX 3 10 1 1
BITMAP
80
80
E0
80
80
C0
80
80
80
40
ENDCHAR
STARTCHAR 0168
ENCODING 360
SWIDTH 600 0
DWIDTH 10 0
BBX 7 15 2 0
BITMAP
60
18
00
00
82
82
82
82
82
82
82
82
82
82
FC
ENDCHAR
STARTCHAR 0169
ENCODING 361
SWIDTH 540 0
DWIDTH 9 0
BBX 6 12 2 0
BITMAP
40
30
00
00
04
84
84
84
84
84
84
FC
ENDCHAR
STARTCHAR 016A
ENCODING 362
SWIDTH 600 0
DWIDTH 10 0
BBX 7 14 2 0
BITMAP
38
00
00
82
82
82
82
82
82
82
82
82
82
FC
ENDCHAR
STARTCHAR 016B
ENCODING 363
SWIDTH 540 0
DWIDTH 9 0
BBX 6 11 2 0
BITMAP
70
00
00
04
84
84
84
84
84
84
FC
ENDCHAR
STARTCHAR 016C
ENCODING 364
SWIDTH 600 0
DWIDTH 10 0
BBX 7 14 2 1
BITMAP
28
10
00
82
82
82
82
82
82
82
82
82
82
FC
ENDCHAR
STARTCHAR 016D
ENCODING 365
SWIDTH 540 0
DWIDTH 9 0
BBX 6 11 2 1
BITMAP
50
20
00
04
84
84
84
84
84
84
FC
ENDCHAR
STARTCHAR 016E
ENCODING 366
SWIDTH 600 0
DWIDTH 10 0
BBX 7 16 2 0
BITMAP
30
48
28
10
00
82
82
82
82
82
82
82
82
82
82
FC
ENDCHAR
STARTCHAR 016F
ENCODING 367
SWIDTH 540 0
DWIDTH 9 0
BBX 6 13 2 0
BITMAP
70
90
50
20
00
04
84
84
84
84
84
84
FC
ENDCHAR
STARTCHAR 0170
ENCODING 368
SWIDTH 600 0
DWIDTH 10 0
BBX 7 15 2 1
BITMAP
34
20
00
00
82
82
82
82
82
82
82
82
82
82
FC
ENDCHAR
STARTCHAR 0171
ENCODING 369
SWIDTH 540 0
DWIDTH 9 0
BBX 6 13 2 0
BITMAP
04
28
40
00
00
04
84
84
84
84
84
84
FC
ENDCHAR
STARTCHAR 0172
ENCODING 370
SWIDTH 600 0
DWIDTH 10 0
BBX 7 14 2 -2
BITMAP
82
82
82
82
82
82
82
82
82
82
84
78
20
18
ENDCHAR
STARTCHAR 0173
ENCODING 371
SWIDTH 540 0
DWIDTH 9 0
BBX 6 11 2 -3
BITMAP
04
84
84
84
84
84
84
8C
78
10
08
ENDCHAR
STARTCHAR 0174
ENCODING 372
SWIDTH 840 0
DWIDTH 14 0
BBX 14 15 0 0
BITMAP
0300
0480
0000
0100
8104
8308
4508
4488
4488
2490
2850
2850
2850
1860
1020
ENDCHAR
STARTCHAR 0175
ENCODING 373
SWIDTH 720 0
DWIDTH 12 0
BBX 10 12 1 0
BITMAP
1C00
0000
0000
0000
0400
8C40
9440
9480
9280
6280
6300
2100
ENDCHAR
STARTCHAR 0176
ENCODING 374
SWIDTH 540 0
DWIDTH 9 0
BBX 9 15 0 0
BITMAP
1C00
0200
0000
8080
8100
4200
2200
2400
1400
1800
0800
0800
0800
0800
0800
ENDCHAR
STARTCHAR 0177
ENCODING 375
SWIDTH 420 0
DWIDTH 7 0
BBX 7 15 0 -3
BITMAP
38
04
00
00
02
84
44
44
28
28
28
10
10
20
20
ENDCHAR
STARTCHAR 0178
ENCODING 376
SWIDTH 540 0
DWIDTH 9 0
BBX 9 12 0 2
BITMAP
8080
8100
4200
2200
2400
1400
1800
0800
0800
0800
0800
0800
ENDCHAR
STARTCHAR 0179
ENCODING 377
SWIDTH 540 0
DWIDTH 9 0
BBX 7 15 1 1
BITMAP
08
00
00
FE
02
04
04
08
10
10
20
40
40
80
FE
ENDCHAR
STARTCHAR 017A
ENCODING 378
SWIDTH 360 0
DWIDTH 6 0
BBX 5 12 1 1
BITMAP
10
20
00
00
78
18
10
20
40
80
80
F8
ENDCHAR
STARTCHAR 017B
ENCODING 379
SWIDTH 540 0
DWIDTH 9 0
BBX 7 12 1 3
BITMAP
FE
02
04
04
08
10
10
20
40
40
80
FE
ENDCHAR
STARTCHAR 017C
ENCODING 380
SWIDTH 360 0
DWIDTH 6 0
BBX 5 12 1 0
BITMAP
20
00
00
00
78
18
10
20
40
80
80
F8
ENDCHAR
STARTCHAR 017D
ENCODING 381
SWIDTH 540 0
DWIDTH 9 0
BBX 7 15 1 0
BITMAP
20
18
00
FE
02
04
04
08
10
10
20
40
40
80
FE
ENDCHAR
STARTCHAR 017E
ENCODING 382
SWIDTH 360 0
DWIDTH 6 0
BBX 5 11 1 1
BITMAP
70
00
00
78
18
10
20
40
80
80
F8
ENDCHAR
STARTCHAR 018F
ENCODING 399
SWIDTH 660 0
DWIDTH 11 0
BBX 9 12 1 0
BITMAP
1E00
6100
0080
0080
0080
0080
FF80
8080
8080
8080
4100
3E00
ENDCHAR
STARTCHAR 0192
ENCODING 402
SWIDTH 480 0
DWIDTH 8 0
BBX 8 14 0 -2
BITMAP
0F
08
10
10
10
10
7F
10
10
10
10
10
20
E0
ENDCHAR
STARTCHAR 01A0
ENCODING 416
SWIDTH 660 0
DWIDTH 11 0
BBX 9 13 1 1
BITMAP
0080
1F80
6100
8080
8080
8080
8080
8080
8080
8080
8080
4100
3E00
ENDCHAR
STARTCHAR 01A1
ENCODING 417
SWIDTH 540 0
DWIDTH 9 0
BBX 7 9 1 1
BITMAP
3A
C4
82
82
82
82
82
84
7C
ENDCHAR
STARTCHAR 01AF
ENCODING 431
SWIDTH 600 0
DWIDTH 10 0
BBX 9 13 2 0
BITMAP
0080
0100
8200
8200
8200
8200
8200
8200
8200
8200
8200
8200
FC00
ENDCHAR
STARTCHAR 01B0
ENCODING 432
SWIDTH 540 0
DWIDTH 9 0
BBX 7 10 2 0
BITMAP
02
02
04
84
84
84
84
84
84
FC
ENDCHAR
STARTCHAR 01FA
ENCODING 506
SWIDTH 600 0
DWIDTH 10 0
BBX 8 16 1 1
BITMAP
08
18
28
28
10
00
18
28
28
24
44
44
42
BE
81
81
ENDCHAR
STARTCHAR 01FB
ENCODING 507
SWIDTH 480 0
DWIDTH 8 0
BBX 6 14 1 1
BITMAP
10
30
48
50
20
30
4C
04
04
3C
C4
84
84
F8
ENDCHAR
STARTCHAR 01FC
ENCODING 508
SWIDTH 840 0
DWIDTH 14 0
BBX 13 15 0 1
BITMAP
0020
0000
0000
03F8
0600
0600
0A00
0A00
1200
23F0
2200
5E00
4200
8200
81F0
ENDCHAR
STARTCHAR 01FD
ENCODING 509
SWIDTH 840 0
DWIDTH 14 0
BBX 12 12 1 1
BITMAP
0200
0000
0000
30C0
4B20
0410
0410
3FF0
C400
8400
8400
FBF0
ENDCHAR
STARTCHAR 01FE
ENCODING 510
SWIDTH 660 0
DWIDTH 11 0
BBX 9 16 1 0
BITMAP
0400
0000
0000
1E80
6100
8300
8280
8480
8880
8880
9080
A080
A080
4100
A200
1C00
ENDCHAR
STARTCHAR 01FF
ENCODING 511
SWIDTH 540 0
DWIDTH 9 0
BBX 7 12 1 1
BITMAP
08
10
00
38
C4
86
8A
92
A2
C2
82
FC
ENDCHAR
STARTCHAR 0218
ENCODING 536
SWIDTH 540 0
DWIDTH 9 0
BBX 7 15 1 -4
BITMAP
38
C6
80
80
80
40
3C
02
02
02
02
C4
38
10
10
ENDCHAR
STARTCHAR 0219
ENCODING 537
SWIDTH 420 0
DWIDTH 7 0
BBX 6 13 1 -4
BITMAP
30
C8
80
80
60
18
04
04
88
70
00
20
20
ENDCHAR
STARTCHAR 021A
ENCODING 538
SWIDTH 540 0
DWIDTH 9 0
BBX 9 15 0 -4
BITMAP
FF80
0800
0800
0800
0800
0800
0800
0800
0800
0800
0800
0800
0000
0800
0800
ENDCHAR
STARTCHAR 021B
ENCODING 539
SWIDTH 300 0
DWIDTH 5 0
BBX 3 13 1 -3
BITMAP
80
80
C0
80
80
80
80
80
80
00
40
20
40
ENDCHAR
STARTCHAR 0237
ENCODING 567
SWIDTH 180 0
DWIDTH 3 0
BBX 1 10 1 -2
BITMAP
80
80
80
80
80
80
80
80
80
80
ENDCHAR
STARTCHAR 0259
ENCODING 601
SWIDTH 480 0
DWIDTH 8 0
BBX 7 9 1 0
BITMAP
30
CC
82
02
02
FE
82
84
7C
ENDCHAR
STARTCHAR 02BB
ENCODING 699
SWIDTH 600 0
DWIDTH 10 0
BBX 1 1 5 11
BITMAP
80
ENDCHAR
STARTCHAR 02BC
ENCODING 700
SWIDTH 600 0
DWIDTH 10 0
BBX 1 2 4 9
BITMAP
80
80
ENDCHAR
STARTCHAR 02C6
ENCODING 710
SWIDTH 600 0
DWIDTH 10 0
BBX 3 1 3 10
BITMAP
E0
ENDCHAR
STARTCHAR 02C7
ENCODING 711
SWIDTH 600 0
DWIDTH 10 0
BBX 4 2 3 10
BITMAP
90
60
ENDCHAR
STARTCHAR 02D8
ENCODING 728
SWIDTH 600 0
DWIDTH 10 0
BBX 4 1 3 11
BITMAP
F0
ENDCHAR
STARTCHAR 02D9
ENCODING 729
SWIDTH 600 0
DWIDTH 10 0
BBX 0 0 5 11
BITMAP
ENDCHAR
STARTCHAR 02DA
ENCODING 730
SWIDTH 600 0
DWIDTH 10 0
BBX 3 3 3 10
BITMAP
60
A0
E0
ENDCHAR
STARTCHAR 02DB
ENCODING 731
SWIDTH 600 0
DWIDTH 10 0
BBX 1 2 3 -2
BITMAP
80
80
ENDCHAR
STARTCHAR 02DC
ENCODING 732
SWIDTH 600 0
DWIDTH 10 0
BBX 3 2 3 10
BITMAP
C0
20
ENDCHAR
STARTCHAR 02DD
ENCODING 733
SWIDTH 600 0
DWIDTH 10 0
BBX 4 2 4 11
BITMAP
90
20
ENDCHAR
STARTCHAR 0300
ENCODING 768
SWIDTH 0 0
DWIDTH 0 0
BBX 2 2 -2 11
BITMAP
80
40
ENDCHAR
STARTCHAR 0301
ENCODING 769
SWIDTH 0 0
DWIDTH 0 0
BBX 1 1 0 11
BITMAP
80
ENDCHAR
STARTCHAR 0302
ENCODING 770
SWIDTH 0 0
DWIDTH 0 0
BBX 3 1 -2 10
BITMAP
E0
ENDCHAR
STARTCHAR 0303
ENCODING 771
SWIDTH 0 0
DWIDTH 0 0
BBX 3 2 -2 10
BITMAP
C0
20
ENDCHAR
STARTCHAR 0304
ENCODING 772
SWIDTH 0 0
DWIDTH 0 0
BBX 2 1 -1 11
BITMAP
C0
ENDCHAR
STARTCHAR 0306
ENCODING 774
SWIDTH 0 0
DWIDTH 0 0
BBX 4 1 -2 11
BITMAP
F0
ENDCHAR
STARTCHAR 0307
ENCODING 775
SWIDTH 0 0
DWIDTH 0 0
BBX 0 0 0 11
BITMAP
ENDCHAR
STARTCHAR 0308
ENCODING 776
SWIDTH 0 0
DWIDTH 0 0
BBX 4 1 -2 11
BITMAP
90
ENDCHAR
STARTCHAR 0309
ENCODING 777
SWIDTH 0 0
DWIDTH 0 0
BBX 1 2 0 10
BITMAP
80
80
ENDCHAR
STARTCHAR 030A
ENCODING 778
SWIDTH 0 0
DWIDTH 0 0
BBX 3 3 -1 10
BITMAP
C0
A0
C0
ENDCHAR
STARTCHAR 030B
ENCODING 779
SWIDTH 0 0
DWIDTH 0 0
BBX 4 2 -1 11
BITMAP
90
20
ENDCHAR
STARTCHAR 030C
ENCODING 780
SWIDTH 0 0
DWIDTH 0 0
BBX 4 2 -2 10
BITMAP
90
60
ENDCHAR
STARTCHAR 0312
ENCODING 786
SWIDTH 0 0
DWIDTH 0 0
BBX 1 1 0 11
BITMAP
80
ENDCHAR
STARTCHAR 0315
ENCODING 789
SWIDTH 0 0
DWIDTH 0 0
BBX 1 2 0 9
BITMAP
80
80
ENDCHAR
STARTCHAR 031B
ENCODING 795
SWIDTH 0 0
DWIDTH 0 0
BBX 0 0 -1 8
BITMAP
ENDCHAR
STARTCHAR 0323
ENCODING 803
SWIDTH 0 0
DWIDTH 0 0
BBX 0 0 0 -2
BITMAP
ENDCHAR
STARTCHAR 0326
ENCODING 806
SWIDTH 0 0
DWIDTH 0 0
BBX 1 2 -1 -3
BITMAP
80
80
ENDCHAR
STARTCHAR 0327
ENCODING 807
SWIDTH 0 0
DWIDTH 0 0
BBX 1 2 0 -2
BITMAP
80
80
ENDCHAR
STARTCHAR 0328
ENCODING 808
SWIDTH 0 0
DWIDTH 0 0
BBX 1 2 -2 -2
BITMAP
80
80
ENDCHAR
STARTCHAR 037E
ENCODING 894
SWIDTH 240 0
DWIDTH 4 0
BBX 2 9 1 -2
BITMAP
40
00
00
00
00
00
00
40
80
ENDCHAR
STARTCHAR 0384
ENCODING 900
SWIDTH 600 0
DWIDTH 10 0
BBX 1 1 5 11
BITMAP
80
ENDCHAR
STARTCHAR 0385
ENCODING 901
SWIDTH 600 0
DWIDTH 10 0
BBX 4 1 3 11
BITMAP
D0
ENDCHAR
STARTCHAR 0386
ENCODING 902
SWIDTH 600 0
DWIDTH 10 0
BBX 8 11 1 1
BITMAP
40
18
28
28
24
44
44
42
BE
81
81
ENDCHAR
STARTCHAR 0387
ENCODING 903
SWIDTH 240 0
DWIDTH 4 0
BBX 1 1 2 7
BITMAP
80
ENDCHAR
STARTCHAR 0388
ENCODING 904
SWIDTH 540 0
DWIDTH 9 0
BBX 9 12 0 1
BITMAP
BF80
2000
2000
2000
2000
2000
3E00
2000
2000
2000
2000
3F00
ENDCHAR
STARTCHAR 0389
ENCODING 905
SWIDTH 660 0
DWIDTH 11 0
BBX 10 12 0 1
BITMAP
A000
2040
2040
2040
2040
2040
3FC0
2040
2040
2040
2040
2000
ENDCHAR
STARTCHAR 038A
ENCODING 906
SWIDTH 420 0
DWIDTH 7 0
BBX 6 12 0 1
BITMAP
BC
10
10
10
10
10
10
10
10
10
10
18
ENDCHAR
STARTCHAR 038C
ENCODING 908
SWIDTH 660 0
DWIDTH 11 0
BBX 10 12 0 1
BITMAP
8F00
3080
4040
4040
4040
4040
4040
4040
4040
4040
2080
1F00
ENDCHAR
STARTCHAR 038E
ENCODING 910
SWIDTH 600 0
DWIDTH 10 0
BBX 10 11 0 1
BITMAP
8000
20C0
2080
1100
0900
0A00
0400
0400
0400
0400
0400
ENDCHAR
STARTCHAR 038F
ENCODING 911
SWIDTH 660 0
DWIDTH 11 0
BBX 10 12 0 1
BITMAP
8F00
3080
4040
4040
4040
4040
4040
4040
4040
2080
1080
3980
ENDCHAR
STARTCHAR 0390
ENCODING 912
SWIDTH 240 0
DWIDTH 4 0
BBX 2 11 1 1
BITMAP
40
00
00
00
00
80
80
80
80
80
80
ENDCHAR
STARTCHAR 0391
ENCODING 913
SWIDTH 600 0
DWIDTH 10 0
BBX 8 10 1 1
BITMAP
18
28
28
24
44
44
42
BE
81
81
ENDCHAR
STARTCHAR 0392
ENCODING 914
SWIDTH 600 0
DWIDTH 10 0
BBX 7 12 2 0
BITMAP
F8
84
82
82
84
84
FC
82
82
82
82
FC
ENDCHAR
STARTCHAR 0393
ENCODING 915
SWIDTH 480 0
DWIDTH 8 0
BBX 6 11 2 0
BITMAP
FC
80
80
80
80
80
80
80
80
80
80
ENDCHAR
STARTCHAR 0394
ENCODING 916
SWIDTH 600 0
DWIDTH 10 0
BBX 8 11 1 1
BITMAP
18
28
28
24
44
44
42
82
81
81
FF
ENDCHAR
STARTCHAR 0395
ENCODING 917
SWIDTH 540 0
DWIDTH 9 0
BBX 6 12 2 0
BITMAP
FC
80
80
80
80
80
F8
80
80
80
80
F8
ENDCHAR
STARTCHAR 0396
ENCODING 918
SWIDTH 540 0
DWIDTH 9 0
BBX 7 12 1 0
BITMAP
FE
02
04
04
08
10
10
20
40
40
80
FE
ENDCHAR
STARTCHAR 0397
ENCODING 919
SWIDTH 660 0
DWIDTH 11 0
BBX 8 12 2 0
BITMAP
01
81
81
81
81
81
FF
81
81
81
81
01
ENDCHAR
STARTCHAR 0398
ENCODING 920
SWIDTH 660 0
DWIDTH 11 0
BBX 9 12 1 0
BITMAP
1E00
6100
8080
8080
8080
8080
9C80
8080
8080
8080
4100
3E00
ENDCHAR
STARTCHAR 0399
ENCODING 921
SWIDTH 360 0
DWIDTH 6 0
BBX 4 12 1 0
BITMAP
F0
40
40
40
40
40
40
40
40
40
40
60
ENDCHAR
STARTCHAR 039A
ENCODING 922
SWIDTH 540 0
DWIDTH 9 0
BBX 7 11 2 1
BITMAP
86
88
90
A0
A0
E0
90
88
84
84
02
ENDCHAR
STARTCHAR 039B
ENCODING 923
SWIDTH 540 0
DWIDTH 9 0
BBX 8 10 1 1
BITMAP
18
28
28
24
44
44
42
82
82
81
ENDCHAR
STARTCHAR 039C
ENCODING 924
SWIDTH 780 0
DWIDTH 13 0
BBX 9 10 2 1
BITMAP
8080
C180
C280
A280
A480
9480
8880
8080
8080
8080
ENDCHAR
STARTCHAR 039D
ENCODING 925
SWIDTH 660 0
DWIDTH 11 0
BBX 8 12 2 0
BITMAP
01
81
C1
C1
A1
91
91
89
89
85
83
01
ENDCHAR
STARTCHAR 039E
ENCODING 926
SWIDTH 540 0
DWIDTH 9 0
BBX 7 12 1 0
BITMAP
FE
00
00
00
00
00
3C
00
00
00
00
7C
ENDCHAR
STARTCHAR 039F
ENCODING 927
SWIDTH 660 0
DWIDTH 11 0
BBX 9 12 1 0
BITMAP
1E00
6100
8080
8080
8080
8080
8080
8080
8080
8080
4100
3E00
ENDCHAR
STARTCHAR 03A0
ENCODING 928
SWIDTH 660 0
DWIDTH 11 0
BBX 8 12 2 0
BITMAP
FF
81
81
81
81
81
81
81
81
81
81
01
ENDCHAR
STARTCHAR 03A1
ENCODING 929
SWIDTH 540 0
DWIDTH 9 0
BBX 7 11 2 0
BITMAP
F8
86
82
82
82
82
FC
80
80
80
80
ENDCHAR
STARTCHAR 03A3
ENCODING 931
SWIDTH 540 0
DWIDTH 9 0
BBX 7 12 1 0
BITMAP
FE
80
40
20
10
10
08
10
20
40
80
FC
ENDCHAR
STARTCHAR 03A4
ENCODING 932
SWIDTH 540 0
DWIDTH 9 0
BBX 9 12 0 0
BITMAP
FF80
0800
0800
0800
0800
0800
0800
0800
0800
0800
0800
0800
ENDCHAR
STARTCHAR 03A5
ENCODING 933
SWIDTH 540 0
DWIDTH 9 0
BBX 9 12 0 0
BITMAP
8080
8100
4200
2200
2400
1400
1800
0800
0800
0800
0800
0800
ENDCHAR
STARTCHAR 03A6
ENCODING 934
SWIDTH 780 0
DWIDTH 13 0
BBX 12 11 1 1
BITMAP
3F80
4460
8420
8410
8410
8410
8410
8420
8420
6440
1B80
ENDCHAR
STARTCHAR 03A7
ENCODING 935
SWIDTH 540 0
DWIDTH 9 0
BBX 8 12 1 0
BITMAP
01
82
84
44
28
30
10
28
44
44
82
01
ENDCHAR
STARTCHAR 03A8
ENCODING 936
SWIDTH 720 0
DWIDTH 12 0
BBX 10 11 1 0
BITMAP
8000
8840
8840
8840
8840
8840
8840
4880
3F00
0800
0800
ENDCHAR
STARTCHAR 03A9
ENCODING 937
SWIDTH 660 0
DWIDTH 11 0
BBX 9 12 1 0
BITMAP
1E00
6100
8080
8080
8080
8080
8080
8080
8080
4100
2100
7300
ENDCHAR
STARTCHAR 03AA
ENCODING 938
SWIDTH 360 0
DWIDTH 6 0
BBX 4 12 1 2
BITMAP
F0
40
40
40
40
40
40
40
40
40
40
60
ENDCHAR
STARTCHAR 03AB
ENCODING 939
SWIDTH 540 0
DWIDTH 9 0
BBX 9 12 0 2
BITMAP
8080
8100
4200
2200
2400
1400
1800
0800
0800
0800
0800
0800
ENDCHAR
STARTCHAR 03AC
ENCODING 940
SWIDTH 600 0
DWIDTH 10 0
BBX 8 12 1 1
BITMAP
10
00
00
30
CC
85
86
82
82
86
85
79
ENDCHAR
STARTCHAR 03AD
ENCODING 941
SWIDTH 480 0
DWIDTH 8 0
BBX 7 12 1 1
BITMAP
10
00
00
38
C6
80
80
78
C0
80
80
7C
ENDCHAR
STARTCHAR 03AE
ENCODING 942
SWIDTH 540 0
DWIDTH 9 0
BBX 7 15 1 -2
BITMAP
08
00
00
18
E4
82
82
82
82
82
82
02
02
02
02
ENDCHAR
STARTCHAR 03AF
ENCODING 943
SWIDTH 240 0
DWIDTH 4 0
BBX 1 11 2 1
BITMAP
80
00
00
00
00
80
80
80
80
80
80
ENDCHAR
STARTCHAR 03B0
ENCODING 944
SWIDTH 540 0
DWIDTH 9 0
BBX 6 12 2 1
BITMAP
20
20
00
00
04
84
84
84
84
88
88
F8
ENDCHAR
STARTCHAR 03B1
ENCODING 945
SWIDTH 600 0
DWIDTH 10 0
BBX 8 9 1 0
BITMAP
30
CC
85
86
82
82
86
85
79
ENDCHAR
STARTCHAR 03B2
ENCODING 946
SWIDTH 540 0
DWIDTH 9 0
BBX 6 15 2 -3
BITMAP
20
D8
84
84
84
88
B8
84
84
84
84
84
88
F0
80
ENDCHAR
STARTCHAR 03B3
ENCODING 947
SWIDTH 420 0
DWIDTH 7 0
BBX 6 10 1 -3
BITMAP
80
84
88
48
48
50
30
20
20
20
ENDCHAR
STARTCHAR 03B4
ENCODING 948
SWIDTH 540 0
DWIDTH 9 0
BBX 7 12 1 0
BITMAP
78
20
10
08
74
84
82
82
82
82
82
7C
ENDCHAR
STARTCHAR 03B5
ENCODING 949
SWIDTH 480 0
DWIDTH 8 0
BBX 7 9 1 0
BITMAP
38
C6
80
80
78
C0
80
80
7C
ENDCHAR
STARTCHAR 03B6
ENCODING 950
SWIDTH 420 0
DWIDTH 7 0
BBX 5 15 1 -3
BITMAP
78
08
10
20
40
80
80
80
80
80
80
70
08
08
08
ENDCHAR
STARTCHAR 03B7
ENCODING 951
SWIDTH 540 0
DWIDTH 9 0
BBX 7 12 1 -3
BITMAP
18
E4
82
82
82
82
82
82
02
02
02
02
ENDCHAR
STARTCHAR 03B8
ENCODING 952
SWIDTH 540 0
DWIDTH 9 0
BBX 7 13 1 0
BITMAP
10
6C
84
82
82
82
82
FE
82
82
82
84
7C
ENDCHAR
STARTCHAR 03B9
ENCODING 953
SWIDTH 240 0
DWIDTH 4 0
BBX 1 6 2 1
BITMAP
80
80
80
80
80
80
ENDCHAR
STARTCHAR 03BA
ENCODING 954
SWIDTH 480 0
DWIDTH 8 0
BBX 6 8 2 0
BITMAP
08
B0
A0
C0
A0
90
88
04
ENDCHAR
STARTCHAR 03BB
ENCODING 955
SWIDTH 420 0
DWIDTH 7 0
BBX 7 12 0 0
BITMAP
20
20
20
10
30
28
28
48
44
44
84
82
ENDCHAR
STARTCHAR 03BC
ENCODING 956
SWIDTH 540 0
DWIDTH 9 0
BBX 6 10 2 -3
BITMAP
04
84
84
84
84
84
84
8C
F0
80
ENDCHAR
STARTCHAR 03BD
ENCODING 957
SWIDTH 420 0
DWIDTH 7 0
BBX 6 8 1 0
BITMAP
80
84
88
48
48
50
30
20
ENDCHAR
STARTCHAR 03BE
ENCODING 958
SWIDTH 420 0
DWIDTH 7 0
BBX 6 14 1 -3
BITMAP
78
80
80
80
40
30
C0
80
80
80
80
70
0C
08
ENDCHAR
STARTCHAR 03BF
ENCODING 959
SWIDTH 540 0
DWIDTH 9 0
BBX 7 9 1 0
BITMAP
38
C4
82
82
82
82
82
84
7C
ENDCHAR
STARTCHAR 03C0
ENCODING 960
SWIDTH 540 0
DWIDTH 9 0
BBX 7 8 1 0
BITMAP
FE
84
84
84
84
84
84
02
ENDCHAR
STARTCHAR 03C1
ENCODING 961
SWIDTH 480 0
DWIDTH 8 0
BBX 7 12 1 -3
BITMAP
18
64
82
82
82
82
82
84
C4
B8
80
80
ENDCHAR
STARTCHAR 03C2
ENCODING 962
SWIDTH 480 0
DWIDTH 8 0
BBX 6 11 1 -3
BITMAP
38
C4
80
80
80
80
80
40
30
0C
08
ENDCHAR
STARTCHAR 03C3
ENCODING 963
SWIDTH 540 0
DWIDTH 9 0
BBX 7 8 1 0
BITMAP
7E
82
82
82
82
82
84
7C
ENDCHAR
STARTCHAR 03C4
ENCODING 964
SWIDTH 480 0
DWIDTH 8 0
BBX 4 8 2 0
BITMAP
F0
40
40
40
40
40
40
20
ENDCHAR
STARTCHAR 03C5
ENCODING 965
SWIDTH 540 0
DWIDTH 9 0
BBX 6 8 2 0
BITMAP
04
84
84
84
84
88
88
F8
ENDCHAR
STARTCHAR 03C6
ENCODING 966
SWIDTH 660 0
DWIDTH 11 0
BBX 9 12 1 -3
BITMAP
0300
8C80
8880
8880
8880
8880
8880
8900
4A00
3C00
0800
0800
ENDCHAR
STARTCHAR 03C7
ENCODING 967
SWIDTH 420 0
DWIDTH 7 0
BBX 6 10 1 -3
BITMAP
84
88
50
50
20
20
50
50
90
88
ENDCHAR
STARTCHAR 03C8
ENCODING 968
SWIDTH 660 0
DWIDTH 11 0
BBX 8 13 2 -2
BITMAP
10
10
10
10
91
91
91
91
91
91
92
7C
10
ENDCHAR
STARTCHAR 03C9
ENCODING 969
SWIDTH 660 0
DWIDTH 11 0
BBX 10 9 1 0
BITMAP
0100
8080
8080
8080
8840
8840
8880
8880
F780
ENDCHAR
STARTCHAR 03CA
ENCODING 970
SWIDTH 240 0
DWIDTH 4 0
BBX 4 11 0 0
BITMAP
90
00
00
00
00
40
40
40
40
40
40
ENDCHAR
STARTCHAR 03CB
ENCODING 971
SWIDTH 540 0
DWIDTH 9 0
BBX 6 8 2 4
BITMAP
04
84
84
84
84
88
88
F8
ENDCHAR
STARTCHAR 03CC
ENCODING 972
SWIDTH 540 0
DWIDTH 9 0
BBX 7 12 1 1
BITMAP
10
00
00
38
C4
82
82
82
82
82
84
7C
ENDCHAR
STARTCHAR 03CD
ENCODING 973
SWIDTH 540 0
DWIDTH 9 0
BBX 6 12 2 1
BITMAP
20
00
00
00
04
84
84
84
84
88
88
F8
ENDCHAR
STARTCHAR 03CE
ENCODING 974
SWIDTH 660 0
DWIDTH 11 0
BBX 10 12 1 1
BITMAP
0400
0000
0000
0100
8080
8080
8080
8840
8840
8880
8880
F780
ENDCHAR
STARTCHAR 0400
ENCODING 1024
SWIDTH 540 0
DWIDTH 9 0
BBX 6 15 2 1
BITMAP
40
20
00
FC
80
80
80
80
80
F8
80
80
80
80
F8
ENDCHAR
STARTCHAR 0401
ENCODING 1025
SWIDTH 540 0
DWIDTH 9 0
BBX 6 12 2 2
BITMAP
FC
80
80
80
80
80
F8
80
80
80
80
F8
ENDCHAR
STARTCHAR 0402
ENCODING 1026
SWIDTH 720 0
DWIDTH 12 0
BBX 12 15 0 -3
BITMAP
FF80
0800
0800
0800
0800
0FC0
0820
0810
0810
0810
0810
0810
0010
0020
0060
ENDCHAR
STARTCHAR 0403
ENCODING 1027
SWIDTH 480 0
DWIDTH 8 0
BBX 6 14 2 1
BITMAP
10
00
00
FC
80
80
80
80
80
80
80
80
80
80
ENDCHAR
STARTCHAR 0404
ENCODING 1028
SWIDTH 600 0
DWIDTH 10 0
BBX 8 12 1 0
BITMAP
1C
62
81
80
80
80
F8
80
80
80
41
3E
ENDCHAR
STARTCHAR 0405
ENCODING 1029
SWIDTH 540 0
DWIDTH 9 0
BBX 7 12 1 0
BITMAP
38
C6
80
80
80
40
3C
02
02
02
02
FC
ENDCHAR
STARTCHAR 0406
ENCODING 1030
SWIDTH 360 0
DWIDTH 6 0
BBX 4 12 1 0
BITMAP
F0
40
40
40
40
40
40
40
40
40
40
60
ENDCHAR
STARTCHAR 0407
ENCODING 1031
SWIDTH 360 0
DWIDTH 6 0
BBX 4 12 1 2
BITMAP
F0
40
40
40
40
40
40
40
40
40
40
60
ENDCHAR
STARTCHAR 0408
ENCODING 1032
SWIDTH 420 0
DWIDTH 7 0
BBX 6 12 0 0
BITMAP
3C
04
04
04
04
04
04
04
04
04
84
78
ENDCHAR
STARTCHAR 0409
ENCODING 1033
SWIDTH 960 0
DWIDTH 16 0
BBX 14 12 1 0
BITMAP
3E00
4200
4200
4200
4200
41F0
420C
4204
4204
4204
8204
83F8
ENDCHAR
STARTCHAR 040A
ENCODING 1034
SWIDTH 1020 0
DWIDTH 17 0
BBX 14 11 2 1
BITMAP
8200
8200
8200
8200
8200
FFF8
8204
8204
8204
8204
03F8
ENDCHAR
STARTCHAR 040B
ENCODING 1035
SWIDTH 780 0
DWIDTH 13 0
BBX 12 12 0 0
BITMAP
FF80
0800
0800
0800
0800
0FC0
0820
0810
0810
0810
0810
0800
ENDCHAR
STARTCHAR 040C
ENCODING 1036
SWIDTH 600 0
DWIDTH 10 0
BBX 7 15 2 1
BITMAP
10
00
00
02
84
88
88
90
90
E0
90
88
88
84
02
ENDCHAR
STARTCHAR 040D
ENCODING 1037
SWIDTH 660 0
DWIDTH 11 0
BBX 8 15 2 1
BITMAP
20
10
00
01
81
87
85
89
91
91
A1
C1
C1
81
81
ENDCHAR
STARTCHAR 040E
ENCODING 1038
SWIDTH 540 0
DWIDTH 9 0
BBX 9 14 0 1
BITMAP
1600
0800
0000
8080
4100
4100
2200
2200
1200
1400
0C00
0800
0800
0800
ENDCHAR
STARTCHAR 040F
ENCODING 1039
SWIDTH 660 0
DWIDTH 11 0
BBX 8 15 2 -3
BITMAP
01
81
81
81
81
81
81
81
81
81
81
81
7E
10
10
ENDCHAR
STARTCHAR 0410
ENCODING 1040
SWIDTH 600 0
DWIDTH 10 0
BBX 8 10 1 1
BITMAP
18
28
28
24
44
44
42
BE
81
81
ENDCHAR
STARTCHAR 0411
ENCODING 1041
SWIDTH 600 0
DWIDTH 10 0
BBX 7 12 2 0
BITMAP
FC
80
80
80
80
F8
84
82
82
82
82
FC
ENDCHAR
STARTCHAR 0412
ENCODING 1042
SWIDTH 600 0
DWIDTH 10 0
BBX 7 12 2 0
BITMAP
F8
84
82
82
84
84
FC
82
82
82
82
FC
ENDCHAR
STARTCHAR 0413
ENCODING 1043
SWIDTH 480 0
DWIDTH 8 0
BBX 6 11 2 0
BITMAP
FC
80
80
80
80
80
80
80
80
80
80
ENDCHAR
STARTCHAR 0414
ENCODING 1044
SWIDTH 660 0
DWIDTH 11 0
BBX 10 15 0 -3
BITMAP
1F80
2080
2080
2080
2080
2080
2080
2080
2080
2080
4080
4080
BF40
8040
8000
ENDCHAR
STARTCHAR 0415
ENCODING 1045
SWIDTH 540 0
DWIDTH 9 0
BBX 6 12 2 0
BITMAP
FC
80
80
80
80
80
F8
80
80
80
80
F8
ENDCHAR
STARTCHAR 0416
ENCODING 1046
SWIDTH 900 0
DWIDTH 15 0
BBX 13 12 1 0
BITMAP
8208
4210
4220
2220
2240
1240
1FC0
2240
2220
4220
4210
8200
ENDCHAR
STARTCHAR 0417
ENCODING 1047
SWIDTH 540 0
DWIDTH 9 0
BBX 7 12 1 0
BITMAP
3C
42
02
02
02
04
1C
02
02
02
02
FC
ENDCHAR
STARTCHAR 0418
ENCODING 1048
SWIDTH 660 0
DWIDTH 11 0
BBX 8 12 2 0
BITMAP
01
81
87
85
89
91
91
A1
C1
C1
81
81
ENDCHAR
STARTCHAR 0419
ENCODING 1049
SWIDTH 660 0
DWIDTH 11 0
BBX 8 15 2 0
BITMAP
04
28
10
01
81
87
85
89
91
91
A1
C1
C1
81
81
ENDCHAR
STARTCHAR 041A
ENCODING 1050
SWIDTH 600 0
DWIDTH 10 0
BBX 7 12 2 0
BITMAP
02
84
88
88
90
90
E0
90
88
88
84
02
ENDCHAR
STARTCHAR 041B
ENCODING 1051
SWIDTH 600 0
DWIDTH 10 0
BBX 8 12 1 0
BITMAP
3F
41
41
41
41
41
41
41
41
41
81
81
ENDCHAR
STARTCHAR 041C
ENCODING 1052
SWIDTH 780 0
DWIDTH 13 0
BBX 9 10 2 1
BITMAP
8080
C180
C280
A280
A480
9480
8880
8080
8080
8080
ENDCHAR
STARTCHAR 041D
ENCODING 1053
SWIDTH 660 0
DWIDTH 11 0
BBX 8 12 2 0
BITMAP
01
81
81
81
81
81
FF
81
81
81
81
01
ENDCHAR
STARTCHAR 041E
ENCODING 1054
SWIDTH 660 0
DWIDTH 11 0
BBX 9 12 1 0
BITMAP
1E00
6100
8080
8080
8080
8080
8080
8080
8080
8080
4100
3E00
ENDCHAR
STARTCHAR 041F
ENCODING 1055
SWIDTH 660 0
DWIDTH 11 0
BBX 8 12 2 0
BITMAP
FF
81
81
81
81
81
81
81
81
81
81
01
ENDCHAR
STARTCHAR 0420
ENCODING 1056
SWIDTH 540 0
DWIDTH 9 0
BBX 7 11 2 0
BITMAP
F8
86
82
82
82
82
FC
80
80
80
80
ENDCHAR
STARTCHAR 0421
ENCODING 1057
SWIDTH 600 0
DWIDTH 10 0
BBX 8 12 1 0
BITMAP
1C
62
81
80
80
80
80
80
80
80
41
3E
ENDCHAR
STARTCHAR 0422
ENCODING 1058
SWIDTH 540 0
DWIDTH 9 0
BBX 9 12 0 0
BITMAP
FF80
0800
0800
0800
0800
0800
0800
0800
0800
0800
0800
0800
ENDCHAR
STARTCHAR 0423
ENCODING 1059
SWIDTH 540 0
DWIDTH 9 0
BBX 9 11 0 1
BITMAP
8080
4100
4100
2200
2200
1200
1400
0C00
0800
0800
0800
ENDCHAR
STARTCHAR 0424
ENCODING 1060
SWIDTH 780 0
DWIDTH 13 0
BBX 12 11 1 1
BITMAP
0F00
74C0
8420
8420
8410
8410
8420
8420
4440
2480
1B00
ENDCHAR
STARTCHAR 0425
ENCODING 1061
SWIDTH 540 0
DWIDTH 9 0
BBX 8 12 1 0
BITMAP
01
82
84
44
28
30
10
28
44
44
82
01
ENDCHAR
STARTCHAR 0426
ENCODING 1062
SWIDTH 660 0
DWIDTH 11 0
BBX 9 14 2 -3
BITMAP
0100
8100
8100
8100
8100
8100
8100
8100
8100
8100
8100
8100
7E80
0080
ENDCHAR
STARTCHAR 0427
ENCODING 1063
SWIDTH 600 0
DWIDTH 10 0
BBX 8 12 1 0
BITMAP
81
81
81
81
81
81
41
3F
01
01
01
01
ENDCHAR
STARTCHAR 0428
ENCODING 1064
SWIDTH 900 0
DWIDTH 15 0
BBX 11 12 2 0
BITMAP
0400
8420
8420
8420
8420
8420
8420
8420
8420
8420
8420
FFE0
ENDCHAR
STARTCHAR 0429
ENCODING 1065
SWIDTH 900 0
DWIDTH 15 0
BBX 13 15 2 -3
BITMAP
0400
8420
8420
8420
8420
8420
8420
8420
8420
8420
8420
8420
7BD8
0008
0008
ENDCHAR
STARTCHAR 042A
ENCODING 1066
SWIDTH 720 0
DWIDTH 12 0
BBX 11 12 0 0
BITMAP
F000
1000
1000
1000
1000
0F80
1060
1020
1020
1020
1020
1FC0
ENDCHAR
STARTCHAR 042B
ENCODING 1067
SWIDTH 780 0
DWIDTH 13 0
BBX 10 11 2 1
BITMAP
8040
8040
8040
8040
F840
8440
8240
8240
8240
8240
FC00
ENDCHAR
STARTCHAR 042C
ENCODING 1068
SWIDTH 600 0
DWIDTH 10 0
BBX 7 11 2 1
BITMAP
80
80
80
80
F8
86
82
82
82
82
FC
ENDCHAR
STARTCHAR 042D
ENCODING 1069
SWIDTH 600 0
DWIDTH 10 0
BBX 8 12 1 0
BITMAP
38
C6
02
01
01
01
1F
01
01
01
82
7C
ENDCHAR
STARTCHAR 042E
ENCODING 1070
SWIDTH 900 0
DWIDTH 15 0
BBX 12 12 2 0
BITMAP
0380
8C60
9020
9010
9010
A010
E010
A010
9010
9020
8820
07C0
ENDCHAR
STARTCHAR 042F
ENCODING 1071
SWIDTH 600 0
DWIDTH 10 0
BBX 8 12 1 0
BITMAP
3F
C1
81
81
81
81
7F
21
21
41
41
81
ENDCHAR
STARTCHAR 0430
ENCODING 1072
SWIDTH 480 0
DWIDTH 8 0
BBX 6 9 1 0
BITMAP
30
4C
04
04
3C
C4
84
84
F8
ENDCHAR
STARTCHAR 0431
ENCODING 1073
SWIDTH 540 0
DWIDTH 9 0
BBX 7 12 1 0
BITMAP
78
80
80
80
FC
82
82
82
82
82
82
7C
ENDCHAR
STARTCHAR 0432
ENCODING 1074
SWIDTH 540 0
DWIDTH 9 0
BBX 6 8 2 0
BITMAP
F8
88
88
90
E8
84
84
F8
ENDCHAR
STARTCHAR 0433
ENCODING 1075
SWIDTH 420 0
DWIDTH 7 0
BBX 4 7 2 0
BITMAP
70
80
80
80
80
80
80
ENDCHAR
STARTCHAR 0434
ENCODING 1076
SWIDTH 540 0
DWIDTH 9 0
BBX 8 9 0 -2
BITMAP
3E
22
22
22
22
42
42
82
FD
ENDCHAR
STARTCHAR 0435
ENCODING 1077
SWIDTH 480 0
DWIDTH 8 0
BBX 7 9 1 0
BITMAP
30
CC
82
82
FE
80
80
82
7C
ENDCHAR
STARTCHAR 0436
ENCODING 1078
SWIDTH 720 0
DWIDTH 12 0
BBX 10 7 1 1
BITMAP
4880
2900
1E00
2900
4880
4880
8040
ENDCHAR
STARTCHAR 0437
ENCODING 1079
SWIDTH 480 0
DWIDTH 8 0
BBX 6 9 1 0
BITMAP
30
C8
04
08
70
0C
04
04
F8
ENDCHAR
STARTCHAR 0438
ENCODING 1080
SWIDTH 540 0
DWIDTH 9 0
BBX 6 8 2 0
BITMAP
0C
8C
94
A4
C4
C4
84
84
ENDCHAR
STARTCHAR 0439
ENCODING 1081
SWIDTH 540 0
DWIDTH 9 0
BBX 6 12 2 0
BITMAP
08
50
20
00
0C
8C
94
A4
C4
C4
84
84
ENDCHAR
STARTCHAR 043A
ENCODING 1082
SWIDTH 480 0
DWIDTH 8 0
BBX 5 8 2 0
BITMAP
08
90
A0
C0
A0
90
90
08
ENDCHAR
STARTCHAR 043B
ENCODING 1083
SWIDTH 480 0
DWIDTH 8 0
BBX 6 8 1 0
BITMAP
7C
44
44
44
44
84
84
80
ENDCHAR
STARTCHAR 043C
ENCODING 1084
SWIDTH 660 0
DWIDTH 11 0
BBX 8 8 2 0
BITMAP
83
85
C5
A9
B1
81
81
01
ENDCHAR
STARTCHAR 043D
ENCODING 1085
SWIDTH 540 0
DWIDTH 9 0
BBX 6 8 2 0
BITMAP
04
84
84
FC
84
84
84
04
ENDCHAR
STARTCHAR 043E
ENCODING 1086
SWIDTH 540 0
DWIDTH 9 0
BBX 7 9 1 0
BITMAP
38
C4
82
82
82
82
82
84
7C
ENDCHAR
STARTCHAR 043F
ENCODING 1087
SWIDTH 540 0
DWIDTH 9 0
BBX 6 8 2 0
BITMAP
FC
84
84
84
84
84
84
04
ENDCHAR
STARTCHAR 0440
ENCODING 1088
SWIDTH 540 0
DWIDTH 9 0
BBX 6 11 2 -3
BITMAP
30
CC
84
84
84
84
84
84
88
F0
80
ENDCHAR
STARTCHAR 0441
ENCODING 1089
SWIDTH 480 0
DWIDTH 8 0
BBX 6 9 1 0
BITMAP
38
C4
80
80
80
80
80
80
7C
ENDCHAR
STARTCHAR 0442
ENCODING 1090
SWIDTH 420 0
DWIDTH 7 0
BBX 4 7 2 0
BITMAP
F0
40
40
40
40
40
40
ENDCHAR
STARTCHAR 0443
ENCODING 1091
SWIDTH 420 0
DWIDTH 7 0
BBX 7 11 0 -3
BITMAP
02
84
44
44
28
28
28
10
10
20
20
ENDCHAR
STARTCHAR 0444
ENCODING 1092
SWIDTH 720 0
DWIDTH 12 0
BBX 10 13 1 -2
BITMAP
0800
0800
3900
CE80
8840
8840
8840
8840
8840
8840
9C80
6B00
0800
ENDCHAR
STARTCHAR 0445
ENCODING 1093
SWIDTH 420 0
DWIDTH 7 0
BBX 6 8 1 0
BITMAP
84
88
50
20
30
50
88
04
ENDCHAR
STARTCHAR 0446
ENCODING 1094
SWIDTH 540 0
DWIDTH 9 0
BBX 7 9 2 -2
BITMAP
04
84
84
84
84
84
84
84
7A
ENDCHAR
STARTCHAR 0447
ENCODING 1095
SWIDTH 480 0
DWIDTH 8 0
BBX 6 6 1 1
BITMAP
84
84
8C
74
04
04
ENDCHAR
STARTCHAR 0448
ENCODING 1096
SWIDTH 720 0
DWIDTH 12 0
BBX 9 8 2 0
BITMAP
0800
8880
8880
8880
8880
8880
8880
FF80
ENDCHAR
STARTCHAR 0449
ENCODING 1097
SWIDTH 780 0
DWIDTH 13 0
BBX 10 9 2 -2
BITMAP
0800
8880
8880
8880
8880
8880
8880
8880
7740
ENDCHAR
STARTCHAR 044A
ENCODING 1098
SWIDTH 540 0
DWIDTH 9 0
BBX 7 8 2 0
BITMAP
80
80
80
FC
82
82
82
FC
ENDCHAR
STARTCHAR 044B
ENCODING 1099
SWIDTH 660 0
DWIDTH 11 0
BBX 7 7 2 1
BITMAP
82
82
F2
8A
8A
8A
F0
ENDCHAR
STARTCHAR 044C
ENCODING 1100
SWIDTH 480 0
DWIDTH 8 0
BBX 6 7 2 1
BITMAP
80
80
F8
88
84
88
F8
ENDCHAR
STARTCHAR 044D
ENCODING 1101
SWIDTH 480 0
DWIDTH 8 0
BBX 6 9 1 0
BITMAP
30
C8
04
04
04
3C
04
04
F8
ENDCHAR
STARTCHAR 044E
ENCODING 1102
SWIDTH 720 0
DWIDTH 12 0
BBX 9 9 2 0
BITMAP
0600
1900
A080
A080
E080
A080
A080
A080
1F00
ENDCHAR
STARTCHAR 044F
ENCODING 1103
SWIDTH 480 0
DWIDTH 8 0
BBX 6 8 1 0
BITMAP
FC
84
84
84
7C
44
44
80
ENDCHAR
STARTCHAR 0450
ENCODING 1104
SWIDTH 480 0
DWIDTH 8 0
BBX 7 12 1 1
BITMAP
20
10
00
30
CC
82
82
FE
80
80
82
7C
ENDCHAR
STARTCHAR 0451
ENCODING 1105
SWIDTH 480 0
DWIDTH 8 0
BBX 7 9 1 3
BITMAP
30
CC
82
82
FE
80
80
82
7C
ENDCHAR
STARTCHAR 0452
ENCODING 1106
SWIDTH 540 0
DWIDTH 9 0
BBX 7 14 1 -2
BITMAP
F0
80
98
64
82
82
82
82
82
82
02
02
02
02
ENDCHAR
STARTCHAR 0453
ENCODING 1107
SWIDTH 420 0
DWIDTH 7 0
BBX 4 11 2 1
BITMAP
20
00
00
00
70
80
80
80
80
80
80
ENDCHAR
STARTCHAR 0454
ENCODING 1108
SWIDTH 480 0
DWIDTH 8 0
BBX 6 9 1 0
BITMAP
38
C4
80
80
80
F0
80
80
7C
ENDCHAR
STARTCHAR 0455
ENCODING 1109
SWIDTH 420 0
DWIDTH 7 0
BBX 6 9 1 0
BITMAP
30
C8
80
80
60
18
04
04
F8
ENDCHAR
STARTCHAR 0456
ENCODING 1110
SWIDTH 180 0
DWIDTH 3 0
BBX 1 6 1 5
BITMAP
80
80
80
80
80
80
ENDCHAR
STARTCHAR 0457
ENCODING 1111
SWIDTH 180 0
DWIDTH 3 0
BBX 4 11 0 0
BITMAP
90
00
00
00
00
40
40
40
40
40
40
ENDCHAR
STARTCHAR 0458
ENCODING 1112
SWIDTH 180 0
DWIDTH 3 0
BBX 1 9 1 2
BITMAP
80
80
80
80
80
80
80
80
80
ENDCHAR
STARTCHAR 0459
ENCODING 1113
SWIDTH 720 0
DWIDTH 12 0
BBX 11 8 1 0
BITMAP
7C00
4400
4400
47C0
4420
8420
8420
87C0
ENDCHAR
STARTCHAR 045A
ENCODING 1114
SWIDTH 780 0
DWIDTH 13 0
BBX 10 7 2 1
BITMAP
8800
8800
FF80
8840
8840
8840
0FC0
ENDCHAR
STARTCHAR 045B
ENCODING 1115
SWIDTH 540 0
DWIDTH 9 0
BBX 7 11 1 1
BITMAP
F0
80
98
64
82
82
82
82
82
82
02
ENDCHAR
STARTCHAR 045C
ENCODING 1116
SWIDTH 480 0
DWIDTH 8 0
BBX 5 12 2 1
BITMAP
10
20
00
00
08
90
A0
C0
A0
90
90
08
ENDCHAR
STARTCHAR 045D
ENCODING 1117
SWIDTH 540 0
DWIDTH 9 0
BBX 6 12 2 1
BITMAP
40
20
00
00
0C
8C
94
A4
C4
C4
84
84
ENDCHAR
STARTCHAR 045E
ENCODING 1118
SWIDTH 420 0
DWIDTH 7 0
BBX 7 15 0 -3
BITMAP
04
28
10
00
02
84
44
44
28
28
28
10
10
20
20
ENDCHAR
STARTCHAR 045F
ENCODING 1119
SWIDTH 540 0
DWIDTH 9 0
BBX 6 9 2 -2
BITMAP
04
84
84
84
84
84
84
84
78
ENDCHAR
STARTCHAR 0472
ENCODING 1138
SWIDTH 660 0
DWIDTH 11 0
BBX 9 12 1 0
BITMAP
1E00
6100
8080
8080
8080
8080
FF80
8080
8080
8080
4100
3E00
ENDCHAR
STARTCHAR 0473
ENCODING 1139
SWIDTH 540 0
DWIDTH 9 0
BBX 7 9 1 0
BITMAP
38
C4
82
82
82
FE
82
84
7C
ENDCHAR
STARTCHAR 0490
ENCODING 1168
SWIDTH 480 0
DWIDTH 8 0
BBX 6 13 2 0
BITMAP
04
04
FC
80
80
80
80
80
80
80
80
80
80
ENDCHAR
STARTCHAR 0491
ENCODING 1169
SWIDTH 420 0
DWIDTH 7 0
BBX 5 10 2 0
BITMAP
08
08
08
F0
80
80
80
80
80
80
ENDCHAR
STARTCHAR 0492
ENCODING 1170
SWIDTH 480 0
DWIDTH 8 0
BBX 7 12 1 0
BITMAP
7E
40
40
40
40
40
F0
40
40
40
40
40
ENDCHAR
STARTCHAR 0493
ENCODING 1171
SWIDTH 420 0
DWIDTH 7 0
BBX 6 7 0 0
BITMAP
3C
40
40
F8
40
40
40
ENDCHAR
STARTCHAR 0494
ENCODING 1172
SWIDTH 600 0
DWIDTH 10 0
BBX 7 15 2 -3
BITMAP
F8
80
80
80
80
80
FC
82
82
82
82
02
02
02
0C
ENDCHAR
STARTCHAR 0495
ENCODING 1173
SWIDTH 480 0
DWIDTH 8 0
BBX 6 11 2 -3
BITMAP
F0
80
80
B0
C8
84
84
04
04
04
08
ENDCHAR
STARTCHAR 0496
ENCODING 1174
SWIDTH 900 0
DWIDTH 15 0
BBX 14 15 1 -3
BITMAP
8208
4210
4220
2220
2240
1240
1FC0
2240
2220
4220
4210
0210
000C
0004
0004
ENDCHAR
STARTCHAR 0497
ENCODING 1175
SWIDTH 720 0
DWIDTH 12 0
BBX 10 9 2 -1
BITMAP
9100
5200
3C00
5200
9100
9100
0080
0040
0040
ENDCHAR
STARTCHAR 0498
ENCODING 1176
SWIDTH 540 0
DWIDTH 9 0
BBX 7 14 1 -3
BITMAP
3C
42
02
02
02
04
1C
02
02
02
02
C4
38
10
ENDCHAR
STARTCHAR 0499
ENCODING 1177
SWIDTH 480 0
DWIDTH 8 0
BBX 6 10 1 -2
BITMAP
30
C8
04
08
70
0C
04
04
88
70
ENDCHAR
STARTCHAR 049A
ENCODING 1178
SWIDTH 600 0
DWIDTH 10 0
BBX 8 15 2 -3
BITMAP
02
84
88
88
90
90
E0
90
88
88
84
04
03
01
01
ENDCHAR
STARTCHAR 049B
ENCODING 1179
SWIDTH 480 0
DWIDTH 8 0
BBX 6 9 2 -2
BITMAP
08
90
A0
C0
A0
90
90
08
04
ENDCHAR
STARTCHAR 049C
ENCODING 1180
SWIDTH 600 0
DWIDTH 10 0
BBX 8 12 2 0
BITMAP
03
84
88
88
D0
D0
F0
D0
88
88
84
02
ENDCHAR
STARTCHAR 049D
ENCODING 1181
SWIDTH 540 0
DWIDTH 9 0
BBX 5 7 2 0
BITMAP
08
D0
E0
E0
E0
D0
88
ENDCHAR
STARTCHAR 04A0
ENCODING 1184
SWIDTH 720 0
DWIDTH 12 0
BBX 11 11 0 0
BITMAP
F020
1040
1080
1080
1100
1200
1E00
1100
1080
1080
1040
ENDCHAR
STARTCHAR 04A1
ENCODING 1185
SWIDTH 540 0
DWIDTH 9 0
BBX 6 7 2 0
BITMAP
84
88
90
70
90
88
84
ENDCHAR
STARTCHAR 04A2
ENCODING 1186
SWIDTH 720 0
DWIDTH 12 0
BBX 9 14 2 -3
BITMAP
0100
8100
8100
8100
8100
8100
FF00
8100
8100
8100
8100
0100
0080
0080
ENDCHAR
STARTCHAR 04A3
ENCODING 1187
SWIDTH 540 0
DWIDTH 9 0
BBX 7 9 2 -2
BITMAP
04
84
84
FC
84
84
84
04
02
ENDCHAR
STARTCHAR 04A4
ENCODING 1188
SWIDTH 900 0
DWIDTH 15 0
BBX 13 11 2 0
BITMAP
01F8
8200
8200
8200
8200
8200
FE00
8200
8200
8200
8200
ENDCHAR
STARTCHAR 04A5
ENCODING 1189
SWIDTH 720 0
DWIDTH 12 0
BBX 9 7 2 0
BITMAP
0780
8800
8800
F800
8800
8800
8800
ENDCHAR
STARTCHAR 04AA
ENCODING 1194
SWIDTH 600 0
DWIDTH 10 0
BBX 8 15 1 -3
BITMAP
1C
62
81
80
80
80
80
80
80
80
41
22
1C
08
08
ENDCHAR
STARTCHAR 04AB
ENCODING 1195
SWIDTH 480 0
DWIDTH 8 0
BBX 6 11 1 -2
BITMAP
38
C4
80
80
80
80
80
80
44
38
10
ENDCHAR
STARTCHAR 04AE
ENCODING 1198
SWIDTH 540 0
DWIDTH 9 0
BBX 9 12 0 0
BITMAP
8080
8100
4200
2200
2400
1400
1800
0800
0800
0800
0800
0800
ENDCHAR
STARTCHAR 04AF
ENCODING 1199
SWIDTH 420 0
DWIDTH 7 0
BBX 6 10 1 -3
BITMAP
04
88
88
88
50
50
50
20
20
20
ENDCHAR
STARTCHAR 04B0
ENCODING 1200
SWIDTH 540 0
DWIDTH 9 0
BBX 9 12 0 0
BITMAP
8080
8100
4200
2200
2400
1400
1800
2E00
0800
0800
0800
0800
ENDCHAR
STARTCHAR 04B1
ENCODING 1201
SWIDTH 420 0
DWIDTH 7 0
BBX 6 10 1 -3
BITMAP
04
88
88
88
50
50
50
20
70
20
ENDCHAR
STARTCHAR 04B2
ENCODING 1202
SWIDTH 540 0
DWIDTH 9 0
BBX 9 15 1 -3
BITMAP
0100
8200
8400
4400
2800
3000
1000
2800
4400
4400
8200
0100
0080
0080
0080
ENDCHAR
STARTCHAR 04B3
ENCODING 1203
SWIDTH 480 0
DWIDTH 8 0
BBX 7 9 1 -2
BITMAP
84
88
50
20
30
50
88
04
02
ENDCHAR
STARTCHAR 04B6
ENCODING 1206
SWIDTH 600 0
DWIDTH 10 0
BBX 9 14 1 -3
BITMAP
8100
8100
8100
8100
8100
8100
4100
3F00
0100
0100
0100
0100
0080
0080
ENDCHAR
STARTCHAR 04B7
ENCODING 1207
SWIDTH 480 0
DWIDTH 8 0
BBX 7 8 1 -1
BITMAP
84
84
8C
74
04
04
04
02
ENDCHAR
STARTCHAR 04B8
ENCODING 1208
SWIDTH 600 0
DWIDTH 10 0
BBX 8 12 1 0
BITMAP
81
81
81
81
81
91
51
3F
11
01
01
01
ENDCHAR
STARTCHAR 04B9
ENCODING 1209
SWIDTH 480 0
DWIDTH 8 0
BBX 6 6 1 1
BITMAP
84
84
AC
74
04
04
ENDCHAR
STARTCHAR 04BA
ENCODING 1210
SWIDTH 600 0
DWIDTH 10 0
BBX 7 10 2 1
BITMAP
80
80
80
80
FC
82
82
82
82
82
ENDCHAR
STARTCHAR 04BB
ENCODING 1211
SWIDTH 540 0
DWIDTH 9 0
BBX 6 11 2 1
BITMAP
80
80
B0
C8
84
84
84
84
84
84
04
ENDCHAR
STARTCHAR 04C0
ENCODING 1216
SWIDTH 360 0
DWIDTH 6 0
BBX 4 12 1 0
BITMAP
F0
40
40
40
40
40
40
40
40
40
40
60
ENDCHAR
STARTCHAR 04C1
ENCODING 1217
SWIDTH 900 0
DWIDTH 15 0
BBX 13 14 1 1
BITMAP
0500
0200
8208
4210
4220
2220
2240
1240
1FC0
2240
2220
4220
4210
8200
ENDCHAR
STARTCHAR 04C2
ENCODING 1218
SWIDTH 720 0
DWIDTH 12 0
BBX 10 12 1 0
BITMAP
1000
0E00
0000
0000
0000
4880
2900
1E00
2900
4880
4880
8040
ENDCHAR
STARTCHAR 04CF
ENCODING 1231
SWIDTH 180 0
DWIDTH 3 0
BBX 1 10 1 1
BITMAP
80
80
80
80
80
80
80
80
80
80
ENDCHAR
STARTCHAR 04D0
ENCODING 1232
SWIDTH 600 0
DWIDTH 10 0
BBX 8 13 1 1
BITMAP
2C
10
00
18
28
28
24
44
44
42
BE
81
81
ENDCHAR
STARTCHAR 04D1
ENCODING 1233
SWIDTH 480 0
DWIDTH 8 0
BBX 6 12 1 0
BITMAP
40
30
00
30
4C
04
04
3C
C4
84
84
F8
ENDCHAR
STARTCHAR 04D2
ENCODING 1234
SWIDTH 600 0
DWIDTH 10 0
BBX 8 10 1 3
BITMAP
18
28
28
24
44
44
42
BE
81
81
ENDCHAR
STARTCHAR 04D3
ENCODING 1235
SWIDTH 480 0
DWIDTH 8 0
BBX 6 9 1 3
BITMAP
30
4C
04
04
3C
C4
84
84
F8
ENDCHAR
STARTCHAR 04D4
ENCODING 1236
SWIDTH 840 0
DWIDTH 14 0
BBX 13 12 0 0
BITMAP
03F8
0600
0600
0A00
0A00
1200
23F0
2200
5E00
4200
8200
81F0
ENDCHAR
STARTCHAR 04D5
ENCODING 1237
SWIDTH 840 0
DWIDTH 14 0
BBX 12 9 1 0
BITMAP
30C0
4B20
0410
0410
3FF0
C400
8400
8400
FBF0
ENDCHAR
STARTCHAR 04D6
ENCODING 1238
SWIDTH 540 0
DWIDTH 9 0
BBX 6 14 2 1
BITMAP
58
20
FC
80
80
80
80
80
F8
80
80
80
80
F8
ENDCHAR
STARTCHAR 04D7
ENCODING 1239
SWIDTH 480 0
DWIDTH 8 0
BBX 7 11 1 1
BITMAP
28
10
30
CC
82
82
FE
80
80
82
7C
ENDCHAR
STARTCHAR 04D8
ENCODING 1240
SWIDTH 660 0
DWIDTH 11 0
BBX 9 12 1 0
BITMAP
1E00
6100
0080
0080
0080
0080
FF80
8080
8080
8080
4100
3E00
ENDCHAR
STARTCHAR 04D9
ENCODING 1241
SWIDTH 480 0
DWIDTH 8 0
BBX 7 9 1 0
BITMAP
30
CC
82
02
02
FE
82
84
7C
ENDCHAR
STARTCHAR 04DC
ENCODING 1244
SWIDTH 900 0
DWIDTH 15 0
BBX 13 12 1 2
BITMAP
8208
4210
4220
2220
2240
1240
1FC0
2240
2220
4220
4210
8200
ENDCHAR
STARTCHAR 04DD
ENCODING 1245
SWIDTH 720 0
DWIDTH 12 0
BBX 10 7 1 5
BITMAP
4880
2900
1E00
2900
4880
4880
8040
ENDCHAR
STARTCHAR 04DE
ENCODING 1246
SWIDTH 540 0
DWIDTH 9 0
BBX 7 12 1 2
BITMAP
3C
42
02
02
02
04
1C
02
02
02
02
FC
ENDCHAR
STARTCHAR 04DF
ENCODING 1247
SWIDTH 480 0
DWIDTH 8 0
BBX 6 12 1 0
BITMAP
48
00
00
30
C8
04
08
70
0C
04
04
F8
ENDCHAR
STARTCHAR 04E2
ENCODING 1250
SWIDTH 660 0
DWIDTH 11 0
BBX 8 14 2 0
BITMAP
18
00
01
81
87
85
89
91
91
A1
C1
C1
81
81
ENDCHAR
STARTCHAR 04E3
ENCODING 1251
SWIDTH 540 0
DWIDTH 9 0
BBX 6 11 2 0
BITMAP
30
00
00
0C
8C
94
A4
C4
C4
84
84
ENDCHAR
STARTCHAR 04E4
ENCODING 1252
SWIDTH 660 0
DWIDTH 11 0
BBX 8 12 2 2
BITMAP
01
81
87
85
89
91
91
A1
C1
C1
81
81
ENDCHAR
STARTCHAR 04E5
ENCODING 1253
SWIDTH 540 0
DWIDTH 9 0
BBX 6 8 2 4
BITMAP
0C
8C
94
A4
C4
C4
84
84
ENDCHAR
STARTCHAR 04E6
ENCODING 1254
SWIDTH 660 0
DWIDTH 11 0
BBX 9 12 1 2
BITMAP
1E00
6100
8080
8080
8080
8080
8080
8080
8080
8080
4100
3E00
ENDCHAR
STARTCHAR 04E7
ENCODING 1255
SWIDTH 540 0
DWIDTH 9 0
BBX 7 9 1 3
BITMAP
38
C4
82
82
82
82
82
84
7C
ENDCHAR
STARTCHAR 04E8
ENCODING 1256
SWIDTH 660 0
DWIDTH 11 0
BBX 9 12 1 0
BITMAP
1E00
6100
8080
8080
8080
8080
FF80
8080
8080
8080
4100
3E00
ENDCHAR
STARTCHAR 04E9
ENCODING 1257
SWIDTH 540 0
DWIDTH 9 0
BBX 7 9 1 0
BITMAP
38
C4
82
82
82
FE
82
84
7C
ENDCHAR
STARTCHAR 04EE
ENCODING 1262
SWIDTH 540 0
DWIDTH 9 0
BBX 9 14 0 0
BITMAP
0C00
0000
0000
8080
4100
4100
2200
2200
1200
1400
0C00
0800
0800
0800
ENDCHAR
STARTCHAR 04EF
ENCODING 1263
SWIDTH 420 0
DWIDTH 7 0
BBX 7 14 0 -3
BITMAP
18
00
00
02
84
44
44
28
28
28
10
10
20
20
ENDCHAR
STARTCHAR 04F0
ENCODING 1264
SWIDTH 540 0
DWIDTH 9 0
BBX 9 11 0 3
BITMAP
8080
4100
4100
2200
2200
1200
1400
0C00
0800
0800
0800
ENDCHAR
STARTCHAR 04F1
ENCODING 1265
SWIDTH 420 0
DWIDTH 7 0
BBX 7 11 0 1
BITMAP
02
84
44
44
28
28
28
10
10
20
20
ENDCHAR
STARTCHAR 04F2
ENCODING 1266
SWIDTH 540 0
DWIDTH 9 0
BBX 9 15 0 1
BITMAP
0900
0200
0000
0000
8080
4100
4100
2200
2200
1200
1400
0C00
0800
0800
0800
ENDCHAR
STARTCHAR 04F3
ENCODING 1267
SWIDTH 420 0
DWIDTH 7 0
BBX 7 15 0 -2
BITMAP
16
04
00
00
02
84
44
44
28
28
28
10
10
20
20
ENDCHAR
STARTCHAR 04F4
ENCODING 1268
SWIDTH 600 0
DWIDTH 10 0
BBX 8 12 1 2
BITMAP
81
81
81
81
81
81
41
3F
01
01
01
01
ENDCHAR
STARTCHAR 04F5
ENCODING 1269
SWIDTH 480 0
DWIDTH 8 0
BBX 6 11 1 0
BITMAP
48
00
00
00
00
84
84
8C
74
04
04
ENDCHAR
STARTCHAR 04F8
ENCODING 1272
SWIDTH 780 0
DWIDTH 13 0
BBX 10 11 2 3
BITMAP
8040
8040
8040
8040
F840
8440
8240
8240
8240
8240
FC00
ENDCHAR
STARTCHAR 04F9
ENCODING 1273
SWIDTH 660 0
DWIDTH 11 0
BBX 7 7 2 5
BITMAP
82
82
F2
8A
8A
8A
F0
ENDCHAR
STARTCHAR 0E3F
ENCODING 3647
SWIDTH 600 0
DWIDTH 10 0
BBX 7 12 2 0
BITMAP
20
FC
A4
A4
A4
A4
FC
A2
A2
A2
A2
FC
ENDCHAR
STARTCHAR 1E80
ENCODING 7808
SWIDTH 840 0
DWIDTH 14 0
BBX 14 15 0 1
BITMAP
0200
0000
0000
0100
8104
8308
4508
4488
4488
2490
2850
2850
2850
1860
1020
ENDCHAR
STARTCHAR 1E81
ENCODING 7809
SWIDTH 720 0
DWIDTH 12 0
BBX 10 12 1 1
BITMAP
1000
0800
0000
0000
0400
8C40
9440
9480
9280
6280
6300
2100
ENDCHAR
STARTCHAR 1E82
ENCODING 7810
SWIDTH 840 0
DWIDTH 14 0
BBX 14 15 0 1
BITMAP
0100
0000
0000
0100
8104
8308
4508
4488
4488
2490
2850
2850
2850
1860
1020
ENDCHAR
STARTCHAR 1E83
ENCODING 7811
SWIDTH 720 0
DWIDTH 12 0
BBX 10 12 1 1
BITMAP
0400
0000
0000
0000
0400
8C40
9440
9480
9280
6280
6300
2100
ENDCHAR
STARTCHAR 1E84
ENCODING 7812
SWIDTH 840 0
DWIDTH 14 0
BBX 14 12 0 2
BITMAP
0100
8104
8308
4508
4488
4488
2490
2850
2850
2850
1860
1020
ENDCHAR
STARTCHAR 1E85
ENCODING 7813
SWIDTH 720 0
DWIDTH 12 0
BBX 10 12 1 0
BITMAP
1200
0000
0000
0000
0400
8C40
9440
9480
9280
6280
6300
2100
ENDCHAR
STARTCHAR 1E9E
ENCODING 7838
SWIDTH 660 0
DWIDTH 11 0
BBX 8 12 2 0
BITMAP
FF
82
84
84
88
8C
83
81
81
81
81
3E
ENDCHAR
STARTCHAR 1EA0
ENCODING 7840
SWIDTH 600 0
DWIDTH 10 0
BBX 8 10 1 -1
BITMAP
18
28
28
24
44
44
42
BE
81
81
ENDCHAR
STARTCHAR 1EA1
ENCODING 7841
SWIDTH 480 0
DWIDTH 8 0
BBX 6 11 1 -2
BITMAP
30
4C
04
04
3C
C4
84
84
88
70
20
ENDCHAR
STARTCHAR 1EA2
ENCODING 7842
SWIDTH 600 0
DWIDTH 10 0
BBX 8 14 1 0
BITMAP
08
08
00
00
18
28
28
24
44
44
42
BE
81
81
ENDCHAR
STARTCHAR 1EA3
ENCODING 7843
SWIDTH 480 0
DWIDTH 8 0
BBX 6 12 1 0
BITMAP
10
10
00
30
4C
04
04
3C
C4
84
84
F8
ENDCHAR
STARTCHAR 1EA4
ENCODING 7844
SWIDTH 600 0
DWIDTH 10 0
BBX 8 15 1 1
BITMAP
02
18
24
00
00
18
28
28
24
44
44
42
BE
81
81
ENDCHAR
STARTCHAR 1EA5
ENCODING 7845
SWIDTH 480 0
DWIDTH 8 0
BBX 6 13 1 1
BITMAP
04
30
40
00
30
4C
04
04
3C
C4
84
84
F8
ENDCHAR
STARTCHAR 1EA6
ENCODING 7846
SWIDTH 600 0
DWIDTH 10 0
BBX 8 15 1 1
BITMAP
40
18
24
00
00
18
28
28
24
44
44
42
BE
81
81
ENDCHAR
STARTCHAR 1EA7
ENCODING 7847
SWIDTH 480 0
DWIDTH 8 0
BBX 7 13 0 1
BITMAP
40
18
20
00
18
26
02
02
1E
62
82
82
7C
ENDCHAR
STARTCHAR 1EA8
ENCODING 7848
SWIDTH 600 0
DWIDTH 10 0
BBX 8 16 1 0
BITMAP
02
02
18
24
00
00
18
28
28
24
44
44
42
BE
81
81
ENDCHAR
STARTCHAR 1EA9
ENCODING 7849
SWIDTH 480 0
DWIDTH 8 0
BBX 6 14 1 0
BITMAP
04
04
30
40
00
30
4C
04
04
3C
C4
84
84
F8
ENDCHAR
STARTCHAR 1EAA
ENCODING 7850
SWIDTH 600 0
DWIDTH 10 0
BBX 8 16 1 0
BITMAP
30
08
18
24
00
00
18
28
28
24
44
44
42
BE
81
81
ENDCHAR
STARTCHAR 1EAB
ENCODING 7851
SWIDTH 480 0
DWIDTH 8 0
BBX 6 14 1 0
BITMAP
24
18
30
40
00
30
4C
04
04
3C
C4
84
84
F8
ENDCHAR
STARTCHAR 1EAC
ENCODING 7852
SWIDTH 600 0
DWIDTH 10 0
BBX 8 14 1 -2
BITMAP
38
00
00
00
18
28
28
24
44
44
42
BE
81
81
ENDCHAR
STARTCHAR 1EAD
ENCODING 7853
SWIDTH 480 0
DWIDTH 8 0
BBX 6 14 1 -2
BITMAP
30
48
00
30
4C
04
04
3C
C4
84
84
88
70
20
ENDCHAR
STARTCHAR 1EAE
ENCODING 7854
SWIDTH 600 0
DWIDTH 10 0
BBX 8 15 1 1
BITMAP
08
00
2C
10
00
18
28
28
24
44
44
42
BE
81
81
ENDCHAR
STARTCHAR 1EAF
ENCODING 7855
SWIDTH 480 0
DWIDTH 8 0
BBX 6 13 1 1
BITMAP
10
00
48
30
30
4C
04
04
3C
C4
84
84
F8
ENDCHAR
STARTCHAR 1EB0
ENCODING 7856
SWIDTH 600 0
DWIDTH 10 0
BBX 8 15 1 1
BITMAP
10
00
2C
10
00
18
28
28
24
44
44
42
BE
81
81
ENDCHAR
STARTCHAR 1EB1
ENCODING 7857
SWIDTH 480 0
DWIDTH 8 0
BBX 6 13 1 1
BITMAP
20
00
48
30
30
4C
04
04
3C
C4
84
84
F8
ENDCHAR
STARTCHAR 1EB2
ENCODING 7858
SWIDTH 600 0
DWIDTH 10 0
BBX 8 16 1 0
BITMAP
08
08
00
2C
10
00
18
28
28
24
44
44
42
BE
81
81
ENDCHAR
STARTCHAR 1EB3
ENCODING 7859
SWIDTH 480 0
DWIDTH 8 0
BBX 6 14 1 0
BITMAP
10
10
00
48
30
30
4C
04
04
3C
C4
84
84
F8
ENDCHAR
STARTCHAR 1EB4
ENCODING 7860
SWIDTH 600 0
DWIDTH 10 0
BBX 8 16 1 0
BITMAP
30
08
00
2C
10
00
18
28
28
24
44
44
42
BE
81
81
ENDCHAR
STARTCHAR 1EB5
ENCODING 7861
SWIDTH 480 0
DWIDTH 8 0
BBX 6 14 1 0
BITMAP
24
18
00
48
30
30
4C
04
04
3C
C4
84
84
F8
ENDCHAR
STARTCHAR 1EB6
ENCODING 7862
SWIDTH 600 0
DWIDTH 10 0
BBX 8 13 1 -1
BITMAP
2C
10
00
18
28
28
24
44
44
42
BE
81
81
ENDCHAR
STARTCHAR 1EB7
ENCODING 7863
SWIDTH 480 0
DWIDTH 8 0
BBX 6 14 1 -2
BITMAP
40
30
00
30
4C
04
04
3C
C4
84
84
88
70
20
ENDCHAR
STARTCHAR 1EB8
ENCODING 7864
SWIDTH 540 0
DWIDTH 9 0
BBX 6 13 2 -2
BITMAP
FC
80
80
80
80
80
F8
80
80
80
80
00
F8
ENDCHAR
STARTCHAR 1EB9
ENCODING 7865
SWIDTH 480 0
DWIDTH 8 0
BBX 7 11 1 -2
BITMAP
30
CC
82
82
FE
80
80
82
44
38
10
ENDCHAR
STARTCHAR 1EBA
ENCODING 7866
SWIDTH 540 0
DWIDTH 9 0
BBX 6 15 2 0
BITMAP
10
10
00
FC
80
80
80
80
80
F8
80
80
80
80
F8
ENDCHAR
STARTCHAR 1EBB
ENCODING 7867
SWIDTH 480 0
DWIDTH 8 0
BBX 7 12 1 0
BITMAP
18
00
00
30
CC
82
82
FE
80
80
82
7C
ENDCHAR
STARTCHAR 1EBC
ENCODING 7868
SWIDTH 540 0
DWIDTH 9 0
BBX 6 15 2 0
BITMAP
60
10
00
FC
80
80
80
80
80
F8
80
80
80
80
F8
ENDCHAR
STARTCHAR 1EBD
ENCODING 7869
SWIDTH 480 0
DWIDTH 8 0
BBX 7 12 1 0
BITMAP
20
18
00
30
CC
82
82
FE
80
80
82
7C
ENDCHAR
STARTCHAR 1EBE
ENCODING 7870
SWIDTH 540 0
DWIDTH 9 0
BBX 6 16 2 1
BITMAP
04
30
48
00
FC
80
80
80
80
80
F8
80
80
80
80
F8
ENDCHAR
STARTCHAR 1EBF
ENCODING 7871
SWIDTH 480 0
DWIDTH 8 0
BBX 7 14 1 0
BITMAP
02
00
30
08
00
30
CC
82
82
FE
80
80
82
7C
ENDCHAR
STARTCHAR 1EC0
ENCODING 7872
SWIDTH 540 0
DWIDTH 9 0
BBX 7 16 1 1
BITMAP
40
18
24
00
7E
80
80
80
80
80
FC
80
80
80
80
7C
ENDCHAR
STARTCHAR 1EC1
ENCODING 7873
SWIDTH 480 0
DWIDTH 8 0
BBX 7 14 1 0
BITMAP
80
00
30
08
00
30
CC
82
82
FE
80
80
82
7C
ENDCHAR
STARTCHAR 1EC2
ENCODING 7874
SWIDTH 540 0
DWIDTH 9 0
BBX 6 17 2 0
BITMAP
04
04
30
48
00
FC
80
80
80
80
80
F8
80
80
80
80
F8
ENDCHAR
STARTCHAR 1EC3
ENCODING 7875
SWIDTH 480 0
DWIDTH 8 0
BBX 7 14 1 0
BITMAP
06
00
30
08
00
30
CC
82
82
FE
80
80
82
7C
ENDCHAR
STARTCHAR 1EC4
ENCODING 7876
SWIDTH 540 0
DWIDTH 9 0
BBX 6 17 2 0
BITMAP
60
10
30
48
00
FC
80
80
80
80
80
F8
80
80
80
80
F8
ENDCHAR
STARTCHAR 1EC5
ENCODING 7877
SWIDTH 480 0
DWIDTH 8 0
BBX 7 14 1 0
BITMAP
34
08
30
08
00
30
CC
82
82
FE
80
80
82
7C
ENDCHAR
STARTCHAR 1EC6
ENCODING 7878
SWIDTH 540 0
DWIDTH 9 0
BBX 6 16 2 -2
BITMAP
70
00
00
FC
80
80
80
80
80
F8
80
80
80
80
00
F8
ENDCHAR
STARTCHAR 1EC7
ENCODING 7879
SWIDTH 480 0
DWIDTH 8 0
BBX 7 14 1 -2
BITMAP
38
40
00
30
CC
82
82
FE
80
80
82
44
38
10
ENDCHAR
STARTCHAR 1EC8
ENCODING 7880
SWIDTH 360 0
DWIDTH 6 0
BBX 4 15 1 0
BITMAP
20
20
00
F0
40
40
40
40
40
40
40
40
40
40
60
ENDCHAR
STARTCHAR 1EC9
ENCODING 7881
SWIDTH 180 0
DWIDTH 3 0
BBX 2 11 1 0
BITMAP
40
40
00
00
00
80
80
80
80
80
80
ENDCHAR
STARTCHAR 1ECA
ENCODING 7882
SWIDTH 360 0
DWIDTH 6 0
BBX 4 13 1 -2
BITMAP
F0
40
40
40
40
40
40
40
40
40
40
00
60
ENDCHAR
STARTCHAR 1ECB
ENCODING 7883
SWIDTH 180 0
DWIDTH 3 0
BBX 1 6 1 3
BITMAP
80
80
80
80
80
80
ENDCHAR
STARTCHAR 1ECC
ENCODING 7884
SWIDTH 660 0
DWIDTH 11 0
BBX 9 14 1 -2
BITMAP
1E00
6100
8080
8080
8080
8080
8080
8080
8080
8080
4100
2200
1C00
0800
ENDCHAR
STARTCHAR 1ECD
ENCODING 7885
SWIDTH 540 0
DWIDTH 9 0
BBX 7 11 1 -2
BITMAP
38
C4
82
82
82
82
82
84
44
38
10
ENDCHAR
STARTCHAR 1ECE
ENCODING 7886
SWIDTH 660 0
DWIDTH 11 0
BBX 9 15 1 0
BITMAP
0C00
0000
0000
1E00
6100
8080
8080
8080
8080
8080
8080
8080
8080
4100
3E00
ENDCHAR
STARTCHAR 1ECF
ENCODING 7887
SWIDTH 540 0
DWIDTH 9 0
BBX 7 12 1 0
BITMAP
18
00
00
38
C4
82
82
82
82
82
84
7C
ENDCHAR
STARTCHAR 1ED0
ENCODING 7888
SWIDTH 660 0
DWIDTH 11 0
BBX 9 16 1 1
BITMAP
0100
1C00
0200
0000
1E00
6100
8080
8080
8080
8080
8080
8080
8080
8080
4100
3E00
ENDCHAR
STARTCHAR 1ED1
ENCODING 7889
SWIDTH 540 0
DWIDTH 9 0
BBX 7 14 1 0
BITMAP
02
00
30
08
00
38
C4
82
82
82
82
82
84
7C
ENDCHAR
STARTCHAR 1ED2
ENCODING 7890
SWIDTH 660 0
DWIDTH 11 0
BBX 9 17 1 0
BITMAP
4000
2000
1C00
0200
0000
1E00
6100
8080
8080
8080
8080
8080
8080
8080
8080
4100
3E00
ENDCHAR
STARTCHAR 1ED3
ENCODING 7891
SWIDTH 540 0
DWIDTH 9 0
BBX 7 14 1 0
BITMAP
80
00
30
08
00
38
C4
82
82
82
82
82
84
7C
ENDCHAR
STARTCHAR 1ED4
ENCODING 7892
SWIDTH 660 0
DWIDTH 11 0
BBX 9 17 1 0
BITMAP
0300
0000
1C00
0200
0000
1E00
6100
8080
8080
8080
8080
8080
8080
8080
8080
4100
3E00
ENDCHAR
STARTCHAR 1ED5
ENCODING 7893
SWIDTH 540 0
DWIDTH 9 0
BBX 7 14 1 0
BITMAP
06
00
30
08
00
38
C4
82
82
82
82
82
84
7C
ENDCHAR
STARTCHAR 1ED6
ENCODING 7894
SWIDTH 660 0
DWIDTH 11 0
BBX 9 17 1 0
BITMAP
3800
0400
1C00
0200
0000
1E00
6100
8080
8080
8080
8080
8080
8080
8080
8080
4100
3E00
ENDCHAR
STARTCHAR 1ED7
ENCODING 7895
SWIDTH 540 0
DWIDTH 9 0
BBX 7 14 1 0
BITMAP
30
08
30
08
00
38
C4
82
82
82
82
82
84
7C
ENDCHAR
STARTCHAR 1ED8
ENCODING 7896
SWIDTH 660 0
DWIDTH 11 0
BBX 9 17 1 -2
BITMAP
1C00
0200
0000
1E00
6100
8080
8080
8080
8080
8080
8080
8080
8080
4100
2200
1C00
0800
ENDCHAR
STARTCHAR 1ED9
ENCODING 7897
SWIDTH 540 0
DWIDTH 9 0
BBX 7 14 1 -2
BITMAP
38
04
00
38
C4
82
82
82
82
82
84
44
38
10
ENDCHAR
STARTCHAR 1EDA
ENCODING 7898
SWIDTH 660 0
DWIDTH 11 0
BBX 9 15 1 1
BITMAP
0400
0000
0080
1F80
6100
8080
8080
8080
8080
8080
8080
8080
8080
4100
3E00
ENDCHAR
STARTCHAR 1EDB
ENCODING 7899
SWIDTH 540 0
DWIDTH 9 0
BBX 7 12 1 1
BITMAP
08
10
00
3A
C4
82
82
82
82
82
84
7C
ENDCHAR
STARTCHAR 1EDC
ENCODING 7900
SWIDTH 660 0
DWIDTH 11 0
BBX 9 15 1 1
BITMAP
1000
0800
0080
1F80
6100
8080
8080
8080
8080
8080
8080
8080
8080
4100
3E00
ENDCHAR
STARTCHAR 1EDD
ENCODING 7901
SWIDTH 540 0
DWIDTH 9 0
BBX 7 12 1 1
BITMAP
20
10
00
3A
C4
82
82
82
82
82
84
7C
ENDCHAR
STARTCHAR 1EDE
ENCODING 7902
SWIDTH 660 0
DWIDTH 11 0
BBX 9 15 1 0
BITMAP
0C00
0000
0080
1F80
6100
8080
8080
8080
8080
8080
8080
8080
8080
4100
3E00
ENDCHAR
STARTCHAR 1EDF
ENCODING 7903
SWIDTH 540 0
DWIDTH 9 0
BBX 7 12 1 0
BITMAP
18
00
00
3A
C4
82
82
82
82
82
84
7C
ENDCHAR
STARTCHAR 1EE0
ENCODING 7904
SWIDTH 660 0
DWIDTH 11 0
BBX 9 15 1 0
BITMAP
1000
0C00
0080
1F80
6100
8080
8080
8080
8080
8080
8080
8080
8080
4100
3E00
ENDCHAR
STARTCHAR 1EE1
ENCODING 7905
SWIDTH 540 0
DWIDTH 9 0
BBX 7 12 1 0
BITMAP
20
18
00
3A
C4
82
82
82
82
82
84
7C
ENDCHAR
STARTCHAR 1EE2
ENCODING 7906
SWIDTH 660 0
DWIDTH 11 0
BBX 9 15 1 -1
BITMAP
0080
1F80
6100
8080
8080
8080
8080
8080
8080
8080
8080
4100
2200
1C00
0800
ENDCHAR
STARTCHAR 1EE3
ENCODING 7907
SWIDTH 540 0
DWIDTH 9 0
BBX 7 11 1 -1
BITMAP
3A
C4
82
82
82
82
82
84
44
38
10
ENDCHAR
STARTCHAR 1EE4
ENCODING 7908
SWIDTH 600 0
DWIDTH 10 0
BBX 7 13 2 -1
BITMAP
82
82
82
82
82
82
82
82
82
82
84
78
10
ENDCHAR
STARTCHAR 1EE5
ENCODING 7909
SWIDTH 540 0
DWIDTH 9 0
BBX 6 10 2 -2
BITMAP
04
84
84
84
84
84
84
8C
70
20
ENDCHAR
STARTCHAR 1EE6
ENCODING 7910
SWIDTH 600 0
DWIDTH 10 0
BBX 7 15 2 0
BITMAP
18
00
00
00
82
82
82
82
82
82
82
82
82
82
FC
ENDCHAR
STARTCHAR 1EE7
ENCODING 7911
SWIDTH 540 0
DWIDTH 9 0
BBX 6 12 2 0
BITMAP
30
00
00
00
04
84
84
84
84
84
84
FC
ENDCHAR
STARTCHAR 1EE8
ENCODING 7912
SWIDTH 600 0
DWIDTH 10 0
BBX 9 15 2 1
BITMAP
1800
1000
0080
0100
8200
8200
8200
8200
8200
8200
8200
8200
8200
8200
FC00
ENDCHAR
STARTCHAR 1EE9
ENCODING 7913
SWIDTH 540 0
DWIDTH 9 0
BBX 7 12 2 1
BITMAP
10
20
02
02
04
84
84
84
84
84
84
FC
ENDCHAR
STARTCHAR 1EEA
ENCODING 7914
SWIDTH 600 0
DWIDTH 10 0
BBX 9 15 2 1
BITMAP
2000
1000
0080
0100
8200
8200
8200
8200
8200
8200
8200
8200
8200
8200
FC00
ENDCHAR
STARTCHAR 1EEB
ENCODING 7915
SWIDTH 540 0
DWIDTH 9 0
BBX 7 12 2 1
BITMAP
40
20
02
02
04
84
84
84
84
84
84
FC
ENDCHAR
STARTCHAR 1EEC
ENCODING 7916
SWIDTH 600 0
DWIDTH 10 0
BBX 9 15 2 0
BITMAP
1800
0000
0080
0100
8200
8200
8200
8200
8200
8200
8200
8200
8200
8200
FC00
ENDCHAR
STARTCHAR 1EED
ENCODING 7917
SWIDTH 540 0
DWIDTH 9 0
BBX 7 12 2 0
BITMAP
30
00
02
02
04
84
84
84
84
84
84
FC
ENDCHAR
STARTCHAR 1EEE
ENCODING 7918
SWIDTH 600 0
DWIDTH 10 0
BBX 9 15 2 0
BITMAP
2000
1800
0080
0100
8200
8200
8200
8200
8200
8200
8200
8200
8200
8200
FC00
ENDCHAR
STARTCHAR 1EEF
ENCODING 7919
SWIDTH 540 0
DWIDTH 9 0
BBX 7 12 2 0
BITMAP
40
30
02
02
04
84
84
84
84
84
84
FC
ENDCHAR
STARTCHAR 1EF0
ENCODING 7920
SWIDTH 600 0
DWIDTH 10 0
BBX 9 15 2 -2
BITMAP
0080
0100
8200
8200
8200
8200
8200
8200
8200
8200
8200
8200
8400
7800
1000
ENDCHAR
STARTCHAR 1EF1
ENCODING 7921
SWIDTH 540 0
DWIDTH 9 0
BBX 7 12 2 -2
BITMAP
02
02
04
84
84
84
84
84
84
8C
70
20
ENDCHAR
STARTCHAR 1EF2
ENCODING 7922
SWIDTH 540 0
DWIDTH 9 0
BBX 9 15 0 1
BITMAP
1000
0800
0000
8080
8100
4200
2200
2400
1400
1800
0800
0800
0800
0800
0800
ENDCHAR
STARTCHAR 1EF3
ENCODING 7923
SWIDTH 420 0
DWIDTH 7 0
BBX 7 16 0 -3
BITMAP
20
20
10
00
00
02
84
44
44
28
28
28
10
10
20
20
ENDCHAR
STARTCHAR 1EF4
ENCODING 7924
SWIDTH 540 0
DWIDTH 9 0
BBX 9 14 0 -2
BITMAP
8080
8100
4200
2200
2400
1400
1800
0800
0800
0800
0800
0800
0000
0800
ENDCHAR
STARTCHAR 1EF5
ENCODING 7925
SWIDTH 420 0
DWIDTH 7 0
BBX 7 11 0 -3
BITMAP
02
84
44
44
28
28
28
10
10
20
20
ENDCHAR
STARTCHAR 1EF6
ENCODING 7926
SWIDTH 540 0
DWIDTH 9 0
BBX 9 15 0 0
BITMAP
0C00
0000
0000
8080
8100
4200
2200
2400
1400
1800
0800
0800
0800
0800
0800
ENDCHAR
STARTCHAR 1EF7
ENCODING 7927
SWIDTH 420 0
DWIDTH 7 0
BBX 7 15 0 -3
BITMAP
08
08
00
00
02
84
44
44
28
28
28
10
10
20
20
ENDCHAR
STARTCHAR 1EF8
ENCODING 7928
SWIDTH 540 0
DWIDTH 9 0
BBX 9 15 0 0
BITMAP
1000
0C00
0000
8080
8100
4200
2200
2400
1400
1800
0800
0800
0800
0800
0800
ENDCHAR
STARTCHAR 1EF9
ENCODING 7929
SWIDTH 420 0
DWIDTH 7 0
BBX 7 15 0 -3
BITMAP
20
18
00
00
02
84
44
44
28
28
28
10
10
20
20
ENDCHAR
STARTCHAR 2013
ENCODING 8211
SWIDTH 540 0
DWIDTH 9 0
BBX 6 1 2 5
BITMAP
FC
ENDCHAR
STARTCHAR 2014
ENCODING 8212
SWIDTH 780 0
DWIDTH 13 0
BBX 9 1 2 5
BITMAP
FF80
ENDCHAR
STARTCHAR 2018
ENCODING 8216
SWIDTH 240 0
DWIDTH 4 0
BBX 1 2 1 10
BITMAP
80
80
ENDCHAR
STARTCHAR 2019
ENCODING 8217
SWIDTH 240 0
DWIDTH 4 0
BBX 2 3 1 10
BITMAP
40
80
80
ENDCHAR
STARTCHAR 201A
ENCODING 8218
SWIDTH 240 0
DWIDTH 4 0
BBX 1 3 1 -2
BITMAP
80
80
80
ENDCHAR
STARTCHAR 201C
ENCODING 8220
SWIDTH 360 0
DWIDTH 6 0
BBX 4 2 1 10
BITMAP
90
90
ENDCHAR
STARTCHAR 201D
ENCODING 8221
SWIDTH 360 0
DWIDTH 6 0
BBX 4 3 1 10
BITMAP
50
90
80
ENDCHAR
STARTCHAR 201E
ENCODING 8222
SWIDTH 360 0
DWIDTH 6 0
BBX 4 3 1 -2
BITMAP
90
90
80
ENDCHAR
STARTCHAR 2020
ENCODING 8224
SWIDTH 540 0
DWIDTH 9 0
BBX 5 15 2 -3
BITMAP
20
20
20
20
F8
20
20
20
20
20
20
20
20
20
20
ENDCHAR
STARTCHAR 2021
ENCODING 8225
SWIDTH 540 0
DWIDTH 9 0
BBX 5 15 2 -3
BITMAP
20
20
20
20
F8
20
20
20
20
20
20
F8
20
20
20
ENDCHAR
STARTCHAR 2022
ENCODING 8226
SWIDTH 300 0
DWIDTH 5 0
BBX 3 2 1 5
BITMAP
E0
E0
ENDCHAR
STARTCHAR 2026
ENCODING 8230
SWIDTH 720 0
DWIDTH 12 0
BBX 0 0 2 0
BITMAP
ENDCHAR
STARTCHAR 2030
ENCODING 8240
SWIDTH 1200 0
DWIDTH 20 0
BBX 18 12 1 0
BITMAP
700000
884000
888000
890000
890000
8A0000
74F3C0
051440
091440
111440
111440
20F3C0
ENDCHAR
STARTCHAR 2032
ENCODING 8242
SWIDTH 180 0
DWIDTH 3 0
BBX 1 5 1 7
BITMAP
80
80
80
80
80
ENDCHAR
STARTCHAR 2033
ENCODING 8243
SWIDTH 360 0
DWIDTH 6 0
BBX 4 5 1 7
BITMAP
90
90
A0
A0
80
ENDCHAR
STARTCHAR 2039
ENCODING 8249
SWIDTH 240 0
DWIDTH 4 0
BBX 3 6 1 2
BITMAP
20
40
80
80
80
60
ENDCHAR
STARTCHAR 203A
ENCODING 8250
SWIDTH 240 0
DWIDTH 4 0
BBX 3 6 1 2
BITMAP
80
40
20
20
40
80
ENDCHAR
STARTCHAR 2044
ENCODING 8260
SWIDTH 120 0
DWIDTH 2 0
BBX 7 10 -2 1
BITMAP
06
04
08
08
10
20
20
40
80
80
ENDCHAR
STARTCHAR 2070
ENCODING 8304
SWIDTH 360 0
DWIDTH 6 0
BBX 4 7 1 5
BITMAP
60
90
90
90
90
90
60
ENDCHAR
STARTCHAR 2074
ENCODING 8308
SWIDTH 300 0
DWIDTH 5 0
BBX 4 5 0 6
BITMAP
30
50
50
90
70
ENDCHAR
STARTCHAR 2075
ENCODING 8309
SWIDTH 300 0
DWIDTH 5 0
BBX 4 7 1 5
BITMAP
F0
80
80
F0
10
10
60
ENDCHAR
STARTCHAR 2076
ENCODING 8310
SWIDTH 360 0
DWIDTH 6 0
BBX 4 7 1 5
BITMAP
20
40
80
F0
90
90
60
ENDCHAR
STARTCHAR 2077
ENCODING 8311
SWIDTH 300 0
DWIDTH 5 0
BBX 4 6 1 5
BITMAP
F0
10
20
20
40
40
ENDCHAR
STARTCHAR 2078
ENCODING 8312
SWIDTH 360 0
DWIDTH 6 0
BBX 5 7 1 5
BITMAP
70
90
90
70
88
90
60
ENDCHAR
STARTCHAR 2079
ENCODING 8313
SWIDTH 360 0
DWIDTH 6 0
BBX 4 7 1 5
BITMAP
60
90
90
B0
60
20
40
ENDCHAR
STARTCHAR 2080
ENCODING 8320
SWIDTH 360 0
DWIDTH 6 0
BBX 4 6 1 0
BITMAP
F0
90
90
90
90
F0
ENDCHAR
STARTCHAR 2081
ENCODING 8321
SWIDTH 360 0
DWIDTH 6 0
BBX 2 6 2 0
BITMAP
80
80
80
80
80
C0
ENDCHAR
STARTCHAR 2082
ENCODING 8322
SWIDTH 300 0
DWIDTH 5 0
BBX 4 6 1 0
BITMAP
E0
10
10
20
40
E0
ENDCHAR
STARTCHAR 2083
ENCODING 8323
SWIDTH 300 0
DWIDTH 5 0
BBX 3 6 2 0
BITMAP
C0
20
40
20
20
C0
ENDCHAR
STARTCHAR 2084
ENCODING 8324
SWIDTH 300 0
DWIDTH 5 0
BBX 5 5 0 0
BITMAP
10
30
50
90
F8
ENDCHAR
STARTCHAR 2085
ENCODING 8325
SWIDTH 300 0
DWIDTH 5 0
BBX 4 6 1 0
BITMAP
E0
80
E0
10
10
E0
ENDCHAR
STARTCHAR 2086
ENCODING 8326
SWIDTH 360 0
DWIDTH 6 0
BBX 4 5 1 1
BITMAP
C0
E0
90
90
F0
ENDCHAR
STARTCHAR 2087
ENCODING 8327
SWIDTH 300 0
DWIDTH 5 0
BBX 4 6 1 0
BITMAP
F0
20
20
20
40
40
ENDCHAR
STARTCHAR 2088
ENCODING 8328
SWIDTH 360 0
DWIDTH 6 0
BBX 5 6 1 0
BITMAP
F0
90
90
F0
88
F0
ENDCHAR
STARTCHAR 2089
ENCODING 8329
SWIDTH 360 0
DWIDTH 6 0
BBX 4 5 1 0
BITMAP
F0
90
90
70
20
ENDCHAR
STARTCHAR 20A1
ENCODING 8353
SWIDTH 600 0
DWIDTH 10 0
BBX 8 13 1 0
BITMAP
1C
76
95
94
A4
A4
A8
A8
A8
A8
69
2A
1C
ENDCHAR
STARTCHAR 20A4
ENCODING 8356
SWIDTH 540 0
DWIDTH 9 0
BBX 7 12 1 0
BITMAP
1C
62
80
80
80
78
40
FC
40
40
40
FE
ENDCHAR
STARTCHAR 20A6
ENCODING 8358
SWIDTH 660 0
DWIDTH 11 0
BBX 11 11 0 1
BITMAP
6080
5080
5080
4880
7FC0
4480
FFE0
4280
4180
4180
0080
ENDCHAR
STARTCHAR 20A8
ENCODING 8360
SWIDTH 660 0
DWIDTH 11 0
BBX 9 12 2 0
BITMAP
E000
9000
9000
8800
9380
9400
E400
A200
9100
9080
8880
0780
ENDCHAR
STARTCHAR 20A9
ENCODING 8361
SWIDTH 900 0
DWIDTH 15 0
BBX 13 12 1 0
BITMAP
0200
8608
8608
8510
8910
FFF0
4910
FFF8
50A0
30A0
3060
2040
ENDCHAR
STARTCHAR 20AA
ENCODING 8362
SWIDTH 720 0
DWIDTH 12 0
BBX 9 12 2 0
BITMAP
F800
8480
8480
A480
A480
A480
A480
A480
A480
A080
A080
2F00
ENDCHAR
STARTCHAR 20AB
ENCODING 8363
SWIDTH 540 0
DWIDTH 9 0
BBX 7 12 1 0
BITMAP
02
0E
02
7A
86
82
82
82
82
46
38
7C
ENDCHAR
STARTCHAR 20AC
ENCODING 8364
SWIDTH 600 0
DWIDTH 10 0
BBX 8 12 1 0
BITMAP
1C
62
81
80
80
F0
80
F8
80
80
41
3E
ENDCHAR
STARTCHAR 20AD
ENCODING 8365
SWIDTH 540 0
DWIDTH 9 0
BBX 8 12 1 0
BITMAP
01
82
84
88
90
A0
DC
90
88
84
82
01
ENDCHAR
STARTCHAR 20AE
ENCODING 8366
SWIDTH 540 0
DWIDTH 9 0
BBX 9 11 0 0
BITMAP
FF80
0800
0800
0800
0A00
0C00
1900
0600
3800
0800
0800
ENDCHAR
STARTCHAR 20B1
ENCODING 8369
SWIDTH 600 0
DWIDTH 10 0
BBX 8 11 1 0
BITMAP
7C
82
82
FF
82
FF
82
7C
80
80
80
ENDCHAR
STARTCHAR 20B2
ENCODING 8370
SWIDTH 600 0
DWIDTH 10 0
BBX 8 14 1 -1
BITMAP
04
1C
6A
89
88
88
88
8F
91
91
91
51
32
1C
ENDCHAR
STARTCHAR 20B4
ENCODING 8372
SWIDTH 600 0
DWIDTH 10 0
BBX 8 12 1 0
BITMAP
3C
42
02
02
02
7C
10
FF
80
80
40
7E
ENDCHAR
STARTCHAR 20B5
ENCODING 8373
SWIDTH 600 0
DWIDTH 10 0
BBX 8 14 1 -1
BITMAP
04
1C
6A
89
88
88
88
90
90
90
90
51
32
1C
ENDCHAR
STARTCHAR 20B8
ENCODING 8376
SWIDTH 600 0
DWIDTH 10 0
BBX 8 11 1 0
BITMAP
FF
00
00
7E
10
10
10
10
10
10
10
ENDCHAR
STARTCHAR 20B9
ENCODING 8377
SWIDTH 600 0
DWIDTH 10 0
BBX 9 12 1 0
BITMAP
FF80
0400
0200
FF80
0200
0400
F800
1000
0800
0400
0400
0200
ENDCHAR
STARTCHAR 20BA
ENCODING 8378
SWIDTH 600 0
DWIDTH 10 0
BBX 8 11 1 1
BITMAP
40
40
50
E0
48
30
C0
41
41
42
7C
ENDCHAR
STARTCHAR 20BD
ENCODING 8381
SWIDTH 540 0
DWIDTH 9 0
BBX 9 11 0 0
BITMAP
3E00
4180
4080
4080
4080
4080
FF00
4000
4000
7800
4000
ENDCHAR
STARTCHAR 20BF
ENCODING 8383
SWIDTH 600 0
DWIDTH 10 0
BBX 7 12 2 0
BITMAP
50
AC
84
84
84
84
FC
82
82
82
82
FC
ENDCHAR
STARTCHAR 2113
ENCODING 8467
SWIDTH 420 0
DWIDTH 7 0
BBX 6 12 1 1
BITMAP
78
88
88
88
90
90
A0
C0
80
80
44
78
ENDCHAR
STARTCHAR 2116
ENCODING 8470
SWIDTH 960 0
DWIDTH 16 0
BBX 14 12 2 0
BITMAP
0138
8144
C144
C144
A144
9128
9110
8918
8900
8500
8300
0100
ENDCHAR
STARTCHAR 2122
ENCODING 8482
SWIDTH 600 0
DWIDTH 10 0
BBX 9 5 0 7
BITMAP
F400
4580
4780
4480
0400
ENDCHAR
STARTCHAR 2126
ENCODING 8486
SWIDTH 660 0
DWIDTH 11 0
BBX 9 12 1 0
BITMAP
1E00
6100
8080
8080
8080
8080
8080
8080
8080
4100
2100
7300
ENDCHAR
STARTCHAR 212E
ENCODING 8494
SWIDTH 660 0
DWIDTH 11 0
BBX 10 12 1 0
BITMAP
1E00
6100
8080
8080
8040
8040
FF80
8000
8000
8000
4080
3F00
ENDCHAR
STARTCHAR 2150
ENCODING 8528
SWIDTH 840 0
DWIDTH 14 0
BBX 13 12 1 0
BITMAP
0020
4040
4080
4080
4100
4200
F2B8
0410
0810
0820
1020
0020
ENDCHAR
STARTCHAR 2151
ENCODING 8529
SWIDTH 840 0
DWIDTH 14 0
BBX 13 11 1 0
BITMAP
0020
4040
4080
4080
4100
4200
F278
0488
0888
0878
1010
ENDCHAR
STARTCHAR 2153
ENCODING 8531
SWIDTH 840 0
DWIDTH 14 0
BBX 13 12 1 0
BITMAP
0020
4040
4080
4080
4100
4200
F230
0408
0810
0808
1008
0030
ENDCHAR
STARTCHAR 2154
ENCODING 8532
SWIDTH 840 0
DWIDTH 14 0
BBX 12 12 1 0
BITMAP
6000
10C0
1080
2100
4100
8200
F4F0
0410
0810
1030
1010
00F0
ENDCHAR
STARTCHAR 2155
ENCODING 8533
SWIDTH 840 0
DWIDTH 14 0
BBX 13 12 1 0
BITMAP
0020
4040
4080
4080
4100
4200
F2E0
0480
08B0
0848
1008
0030
ENDCHAR
STARTCHAR 2156
ENCODING 8534
SWIDTH 840 0
DWIDTH 14 0
BBX 12 12 1 0
BITMAP
6000
10C0
1080
2100
4100
8200
F4E0
0480
08E0
1010
1010
00F0
ENDCHAR
STARTCHAR 2157
ENCODING 8535
SWIDTH 780 0
DWIDTH 13 0
BBX 11 12 2 0
BITMAP
C000
2180
2100
4200
2400
2400
C9C0
1100
11C0
2020
2020
01E0
ENDCHAR
STARTCHAR 2158
ENCODING 8536
SWIDTH 840 0
DWIDTH 14 0
BBX 13 11 0 1
BITMAP
3060
5040
5080
9080
7100
0270
0240
0470
0808
0808
0078
ENDCHAR
STARTCHAR 2159
ENCODING 8537
SWIDTH 840 0
DWIDTH 14 0
BBX 13 12 1 0
BITMAP
0020
4040
4080
4080
4100
4200
F220
0440
08B0
08C8
1088
00F0
ENDCHAR
STARTCHAR 215A
ENCODING 8538
SWIDTH 780 0
DWIDTH 13 0
BBX 12 12 1 0
BITMAP
F040
8080
8080
F100
1200
1200
6400
08C0
0960
1190
2110
20F0
ENDCHAR
STARTCHAR 215B
ENCODING 8539
SWIDTH 900 0
DWIDTH 15 0
BBX 13 12 1 0
BITMAP
0020
4040
4080
4080
4100
4200
F278
0488
0848
08B8
1088
0078
ENDCHAR
STARTCHAR 215C
ENCODING 8540
SWIDTH 840 0
DWIDTH 14 0
BBX 12 12 2 0
BITMAP
C000
2180
2100
4200
2400
2400
C9E0
1110
1120
21D0
2110
01E0
ENDCHAR
STARTCHAR 215D
ENCODING 8541
SWIDTH 840 0
DWIDTH 14 0
BBX 13 12 1 0
BITMAP
F040
8080
8080
F100
1200
1200
64F0
0890
0890
10F0
2108
20F0
ENDCHAR
STARTCHAR 215E
ENCODING 8542
SWIDTH 840 0
DWIDTH 14 0
BBX 12 12 1 0
BITMAP
F000
1080
2100
2100
4200
4400
04F0
0910
1090
1170
2110
00F0
ENDCHAR
STARTCHAR 2190
ENCODING 8592
SWIDTH 720 0
DWIDTH 12 0
BBX 11 5 0 4
BITMAP
6000
8000
FFE0
4000
2000
ENDCHAR
STARTCHAR 2191
ENCODING 8593
SWIDTH 720 0
DWIDTH 12 0
BBX 6 11 3 0
BITMAP
10
68
A4
20
20
20
20
20
20
20
20
ENDCHAR
STARTCHAR 2192
ENCODING 8594
SWIDTH 720 0
DWIDTH 12 0
BBX 11 5 1 4
BITMAP
0080
0040
FFA0
0040
0080
ENDCHAR
STARTCHAR 2193
ENCODING 8595
SWIDTH 720 0
DWIDTH 12 0
BBX 5 11 4 1
BITMAP
40
40
40
40
40
40
40
40
48
D0
20
ENDCHAR
STARTCHAR 2194
ENCODING 8596
SWIDTH 720 0
DWIDTH 12 0
BBX 12 5 0 4
BITMAP
6040
8020
FFD0
4020
2040
ENDCHAR
STARTCHAR 2195
ENCODING 8597
SWIDTH 720 0
DWIDTH 12 0
BBX 6 12 3 0
BITMAP
10
68
A4
20
20
20
20
20
20
24
68
10
ENDCHAR
STARTCHAR 2196
ENCODING 8598
SWIDTH 720 0
DWIDTH 12 0
BBX 8 8 2 2
BITMAP
F0
C0
A0
90
08
04
02
01
ENDCHAR
STARTCHAR 2197
ENCODING 8599
SWIDTH 720 0
DWIDTH 12 0
BBX 8 8 2 2
BITMAP
07
03
05
08
10
20
40
80
ENDCHAR
STARTCHAR 2198
ENCODING 8600
SWIDTH 720 0
DWIDTH 12 0
BBX 8 8 2 2
BITMAP
80
40
20
10
08
05
03
07
ENDCHAR
STARTCHAR 2199
ENCODING 8601
SWIDTH 720 0
DWIDTH 12 0
BBX 8 7 2 3
BITMAP
03
04
08
90
A0
C0
F0
ENDCHAR
STARTCHAR 21A9
ENCODING 8617
SWIDTH 720 0
DWIDTH 12 0
BBX 12 8 0 1
BITMAP
0020
0010
1010
2010
4010
FFE0
4000
2000
ENDCHAR
STARTCHAR 21AA
ENCODING 8618
SWIDTH 720 0
DWIDTH 12 0
BBX 12 8 0 1
BITMAP
4000
8000
8000
8040
8020
7FF0
0020
0040
ENDCHAR
STARTCHAR 21B0
ENCODING 8624
SWIDTH 720 0
DWIDTH 12 0
BBX 7 11 2 0
BITMAP
20
40
80
FE
82
42
02
02
02
02
02
ENDCHAR
STARTCHAR 21B1
ENCODING 8625
SWIDTH 720 0
DWIDTH 12 0
BBX 8 10 3 1
BITMAP
04
02
FD
82
84
80
80
80
80
80
ENDCHAR
STARTCHAR 21B2
ENCODING 8626
SWIDTH 720 0
DWIDTH 12 0
BBX 7 11 2 1
BITMAP
02
02
02
02
02
22
42
82
FC
80
40
ENDCHAR
STARTCHAR 21B3
ENCODING 8627
SWIDTH 720 0
DWIDTH 12 0
BBX 7 11 3 1
BITMAP
80
80
80
80
80
88
84
82
7E
04
08
ENDCHAR
STARTCHAR 21B6
ENCODING 8630
SWIDTH 780 0
DWIDTH 13 0
BBX 12 10 1 1
BITMAP
0780
1860
2020
2010
2000
2000
2000
2800
B000
6000
ENDCHAR
STARTCHAR 21B7
ENCODING 8631
SWIDTH 780 0
DWIDTH 13 0
BBX 13 10 0 1
BITMAP
1E00
6180
8080
8040
8040
0040
0040
0148
00D0
0060
ENDCHAR
STARTCHAR 21BA
ENCODING 8634
SWIDTH 720 0
DWIDTH 12 0
BBX 11 12 1 0
BITMAP
03C0
0600
0500
4480
8040
8020
8020
8020
8020
8040
4080
3F00
ENDCHAR
STARTCHAR 21BB
ENCODING 8635
SWIDTH 720 0
DWIDTH 12 0
BBX 11 12 1 0
BITMAP
7800
1800
2800
4840
8040
8020
8020
8020
8020
8040
4080
3F00
ENDCHAR
STARTCHAR 21C4
ENCODING 8644
SWIDTH 720 0
DWIDTH 12 0
BBX 12 11 0 1
BITMAP
0040
0020
7FD0
0020
0040
2000
4000
8000
FFE0
4000
2000
ENDCHAR
STARTCHAR 21C6
ENCODING 8646
SWIDTH 720 0
DWIDTH 12 0
BBX 12 12 0 0
BITMAP
1000
2000
4000
BFE0
4000
2000
0040
0020
0010
7FF0
0020
0040
ENDCHAR
STARTCHAR 2202
ENCODING 8706
SWIDTH 540 0
DWIDTH 9 0
BBX 7 12 1 0
BITMAP
20
10
08
04
7A
82
82
82
82
82
82
7C
ENDCHAR
STARTCHAR 2206
ENCODING 8710
SWIDTH 600 0
DWIDTH 10 0
BBX 8 11 1 1
BITMAP
18
28
28
24
44
44
42
82
81
81
FF
ENDCHAR
STARTCHAR 220F
ENCODING 8719
SWIDTH 660 0
DWIDTH 11 0
BBX 10 15 1 -3
BITMAP
FFC0
4100
4100
4100
4100
4100
4100
4100
4100
4100
4100
4100
4100
4100
4000
ENDCHAR
STARTCHAR 2211
ENCODING 8721
SWIDTH 480 0
DWIDTH 8 0
BBX 7 15 0 -3
BITMAP
FE
80
40
20
20
10
08
04
08
08
10
20
40
40
7C
ENDCHAR
STARTCHAR 2212
ENCODING 8722
SWIDTH 600 0
DWIDTH 10 0
BBX 6 1 2 5
BITMAP
FC
ENDCHAR
STARTCHAR 221A
ENCODING 8730
SWIDTH 600 0
DWIDTH 10 0
BBX 8 11 1 1
BITMAP
01
02
02
C2
44
24
24
28
28
18
10
ENDCHAR
STARTCHAR 221E
ENCODING 8734
SWIDTH 720 0
DWIDTH 12 0
BBX 12 6 0 2
BITMAP
79E0
8610
8410
8410
8620
79E0
ENDCHAR
STARTCHAR 222B
ENCODING 8747
SWIDTH 300 0
DWIDTH 5 0
BBX 2 15 2 -3
BITMAP
40
80
80
80
80
80
80
80
80
80
80
80
80
80
80
ENDCHAR
STARTCHAR 2248
ENCODING 8776
SWIDTH 600 0
DWIDTH 10 0
BBX 8 4 1 3
BITMAP
F1
0E
00
7F
ENDCHAR
STARTCHAR 2260
ENCODING 8800
SWIDTH 600 0
DWIDTH 10 0
BBX 8 6 1 3
BITMAP
04
FF
10
10
FF
20
ENDCHAR
STARTCHAR 2264
ENCODING 8804
SWIDTH 600 0
DWIDTH 10 0
BBX 8 10 1 0
BITMAP
01
06
18
60
80
60
18
06
00
7E
ENDCHAR
STARTCHAR 2265
ENCODING 8805
SWIDTH 600 0
DWIDTH 10 0
BBX 7 10 1 0
BITMAP
80
60
18
06
02
04
18
60
00
7E
ENDCHAR
STARTCHAR 25CA
ENCODING 9674
SWIDTH 600 0
DWIDTH 10 0
BBX 8 11 1 1
BITMAP
38
24
44
82
81
81
82
42
24
28
18
ENDCHAR
STARTCHAR 2713
ENCODING 10003
SWIDTH 900 0
DWIDTH 15 0
BBX 10 11 2 1
BITMAP
0040
0040
0080
8080
8100
4100
4200
2200
2400
1400
0800
ENDCHAR
STARTCHAR 274C
ENCODING 10060
SWIDTH 900 0
DWIDTH 15 0
BBX 10 10 3 1
BITMAP
0040
8080
4100
2200
1400
0800
1400
2200
4100
80C0
ENDCHAR
STARTCHAR 2B0E
ENCODING 11022
SWIDTH 720 0
DWIDTH 12 0
BBX 12 8 0 2
BITMAP
FF80
0080
0080
0080
0080
0290
01A0
00C0
ENDCHAR
STARTCHAR 2B0F
ENCODING 11023
SWIDTH 720 0
DWIDTH 12 0
BBX 11 7 1 3
BITMAP
0180
0340
0520
0100
0100
0100
FF00
ENDCHAR
STARTCHAR 2B10
ENCODING 11024
SWIDTH 720 0
DWIDTH 12 0
BBX 11 8 1 2
BITMAP
3FE0
2000
2000
2000
2000
2800
B000
6000
ENDCHAR
STARTCHAR 2B11
ENCODING 11025
SWIDTH 720 0
DWIDTH 12 0
BBX 11 7 0 3
BITMAP
3000
5800
9400
1000
1000
1000
1FE0
ENDCHAR
STARTCHAR ECE0
ENCODING 60640
SWIDTH 1140 0
DWIDTH 19 0
BBX 17 12 1 0
BITMAP
0E0380
3E0780
700C00
601800
C01800
C03F00
C03F00
C01000
601800
601C00
3E0F80
1E0380
ENDCHAR
STARTCHAR EFCC
ENCODING 61388
SWIDTH 1020 0
DWIDTH 17 0
BBX 14 12 2 0
BITMAP
F8E0
F3B8
860C
8DF0
8910
8A00
FA00
8B00
89F0
8444
871C
81F0
ENDCHAR
STARTCHAR F6D7
ENCODING 63191
SWIDTH 0 0
DWIDTH 0 0
BBX 2 2 0 11
BITMAP
40
80
ENDCHAR
STARTCHAR F6D8
ENCODING 63192
SWIDTH 0 0
DWIDTH 0 0
BBX 2 2 -2 11
BITMAP
80
40
ENDCHAR
STARTCHAR FB01
ENCODING 64257
SWIDTH 480 0
DWIDTH 8 0
BBX 6 12 1 0
BITMAP
44
80
80
80
FC
84
84
84
84
84
84
04
ENDCHAR
STARTCHAR FB02
ENCODING 64258
SWIDTH 480 0
DWIDTH 8 0
BBX 6 12 1 0
BITMAP
44
84
84
84
C4
84
84
84
84
84
84
04
ENDCHAR
ENDFONT
